<?xml version="1.0" encoding="UTF-8"?>
<svg version="1.1" xmlns="http://www.w3.org/2000/svg" width="1920" height="1416">
<path d="M0 0 C3.06445771 3.59203528 5.2447896 7.14751585 7.3203125 11.3828125 C7.62387665 11.99655731 7.9274408 12.61030212 8.24020386 13.24264526 C9.20759469 15.20064036 10.16680279 17.16249174 11.125 19.125 C12.3741063 21.67100336 13.62702803 24.21509665 14.8828125 26.7578125 C15.20608017 27.41266632 15.52934784 28.06752014 15.8624115 28.74221802 C18.86404649 34.78963436 22.00649133 40.75926975 25.16404724 46.72637939 C29.32597946 54.59622565 33.39143945 62.51386188 37.44320679 70.44085693 C39.61583255 74.69104642 41.79232653 78.9392543 43.96875 83.1875 C44.40112473 84.03158417 44.83349945 84.87566833 45.27897644 85.74533081 C49.06388512 93.13120549 52.87045664 100.50569125 56.6875 107.875 C61.92854271 117.99392208 67.15770594 128.118817 72.375 138.25 C72.72877716 138.93692932 73.08255432 139.62385864 73.447052 140.331604 C76.32621549 145.9221825 79.20475199 151.51308375 82.08325195 157.10400391 C84.59687358 161.98615423 87.11075766 166.8681693 89.625 171.75 C89.97899872 172.43737244 90.33299744 173.12474487 90.69772339 173.83294678 C95.60065779 183.35232497 100.51468768 192.86588802 105.4375 202.375 C111.36377079 213.82243468 117.26356679 225.28332605 123.15548706 236.74847412 C128.25604824 246.67308036 133.36899844 256.59109807 138.5 266.5 C144.40606108 277.90568355 150.28506583 289.32510064 156.15576172 300.74902344 C161.25623228 310.67344604 166.36909259 320.59127988 171.5 330.5 C177.0184847 341.15720271 182.51447271 351.82579731 188 362.5 C193.54962307 373.29835323 199.10792735 384.09208897 204.6875 394.875 C205.28377197 396.02774414 205.88004395 397.18048828 206.49438477 398.36816406 C209.38650882 403.95733188 212.28205921 409.54467867 215.18388367 415.1288147 C216.59578095 417.84641773 218.00617994 420.56479689 219.41641235 423.28326416 C220.09320224 424.5868417 220.77074484 425.89002875 221.44906616 427.19281006 C222.38321608 428.98697516 223.31472558 430.78251429 224.24609375 432.578125 C224.77904053 433.60325195 225.3119873 434.62837891 225.86108398 435.68457031 C227 438 227 438 227 439 C146.28615141 440.64437539 65.5688643 442.09163503 -15.14920044 443.51097488 C-19.00392669 443.57876302 -22.85865285 443.64655645 -26.71337891 443.71435547 C-28.14776947 443.73958133 -28.14776947 443.73958133 -29.61113763 443.76531681 C-45.25149135 444.04045999 -60.8917808 444.31910239 -76.53204823 444.59910347 C-92.86864524 444.89151325 -109.20529529 445.18080173 -125.54199982 445.46714294 C-134.60532781 445.62607305 -143.66862953 445.78624491 -152.73187256 445.94995499 C-189.82334563 446.61920179 -226.90049373 447.24235276 -264 447 C-264.19903931 448.1442041 -264.19903931 448.1442041 -264.40209961 449.31152344 C-267.17906616 461.7982346 -278.99679715 473.17601506 -289.09375 480.15234375 C-305.86600051 490.8153471 -324.60345441 494.97127145 -344.25390625 491.3046875 C-362.40335696 486.87436004 -378.34597093 476.33858269 -388.75 460.6875 C-399.35782612 443.00778981 -402.87559518 423.47680744 -397.96484375 403.3359375 C-392.31517271 383.80225706 -380.32854878 369.09497123 -362.8125 358.98242188 C-345.77438658 349.74732376 -326.4556422 348.63147791 -308 354 C-289.89645411 360.11666835 -276.47938184 371.4466904 -266.62109375 387.6015625 C-265.23693378 390.50329544 -264.29534102 393.14319473 -263.39868164 396.21240234 C-263.13487198 397.10986176 -262.87106232 398.00732117 -262.59925842 398.93197632 C-262.40150314 399.61442413 -262.20374786 400.29687195 -262 401 C-260.84513596 400.98969254 -259.69027191 400.97938507 -258.50041199 400.96876526 C-182.03028456 400.2902991 -105.55950122 399.83976951 -29.08721 399.48761183 C-21.92951427 399.45463232 -14.77182134 399.42112236 -7.61413056 399.38708669 C50.59092348 399.11034118 108.79425097 398.92498069 167 399 C153.77198237 373.12443277 153.77198237 373.12443277 140.30859375 347.37109375 C138.5761781 344.10077132 136.86433335 340.82028272 135.16015625 337.53515625 C128.60257693 324.8970477 121.89222383 312.35410001 115.0246582 299.8815918 C114.32674349 298.60000289 113.65261858 297.30523717 113 296 C89.29515564 295.85699264 65.60032785 296.05942769 41.8984375 296.4375 C40.86178058 296.45393177 40.86178058 296.45393177 39.8041811 296.4706955 C27.54604537 296.6650058 15.28803881 296.86711212 3.03009033 297.07287598 C-6.99288297 297.24108856 -17.01590728 297.40547069 -27.0390625 297.5625 C-28.08306575 297.57893177 -28.08306575 297.57893177 -29.14815998 297.5956955 C-57.4332421 298.03865547 -85.71134595 298.11546661 -114 298 C-114.20689453 299.13961182 -114.20689453 299.13961182 -114.41796875 300.30224609 C-117.53756381 314.76177857 -128.94002192 328.09974698 -141 336 C-158.33815609 346.31044864 -177.11035223 350.23519314 -196.9375 345.375 C-215.62791628 339.64112633 -230.54744965 328.17174794 -240 311 C-248.56531567 294.31040117 -250.29166857 275.69381697 -244.9375 257.75 C-238.8542297 239.19647887 -226.08738502 225.72435799 -209.0625 216.75 C-193.26842576 209.224234 -175.36526852 207.92765014 -158.58984375 213.0390625 C-139.3813618 220.00354134 -125.20101633 232.84808696 -116.12890625 251.140625 C-115 254 -115 254 -114 260 C-90.735 259.505 -90.735 259.505 -67 259 C-67.66 253.39 -68.32 247.78 -69 242 C-69.16379425 238.39930783 -69.28281719 234.88251437 -69.265625 231.2890625 C-69.26826355 230.36347031 -69.2709021 229.43787811 -69.27362061 228.48423767 C-69.27738671 225.53101298 -69.26490764 222.57818483 -69.25 219.625 C-69.24734131 218.10409256 -69.24734131 218.10409256 -69.24462891 216.55245972 C-69.20604629 197.64122888 -68.32109433 178.85994503 -67 160 C-68.13257736 160.00261841 -69.26515472 160.00523682 -70.43205261 160.00793457 C-114.06049244 160.09769633 -157.68649673 159.82059574 -201.31389892 159.55461788 C-211.45025088 159.4928856 -221.58661359 159.43301053 -231.72297728 159.37324238 C-252.48199685 159.25079958 -273.24100282 159.12617882 -294 159 C-294.2024231 159.61646896 -294.40484619 160.23293793 -294.61340332 160.86808777 C-294.88084351 161.67756363 -295.14828369 162.48703949 -295.42382812 163.32104492 C-295.68812622 164.12313889 -295.95242432 164.92523285 -296.22473145 165.75163269 C-301.2310758 180.27060282 -313.78602059 193.4020762 -327.12890625 200.71484375 C-346.01167589 209.83296982 -365.32820458 211.3735539 -385.30859375 204.93359375 C-404.03043865 197.55684602 -416.96252412 184.56393006 -425.75 166.625 C-433.23051569 149.12108705 -433.22771753 129.75844397 -426.25244141 112.10839844 C-418.49283028 93.90260732 -405.03635522 80.77365995 -387 73 C-371.53370325 66.91293199 -351.49443341 66.20625099 -336.10302734 72.81445312 C-317.56589521 81.09223386 -305.22291865 92.9070805 -296 111 C-295.67 111.99 -295.34 112.98 -295 114 C-293.70829753 114.00634791 -293.70829753 114.00634791 -292.39050007 114.01282406 C-271.10550809 114.11766998 -249.82053934 114.22648545 -228.53558826 114.33933926 C-218.24093769 114.39383321 -207.94628387 114.44712608 -197.65161133 114.49731445 C-150.4283203 114.72821301 -103.21503521 115.0458234 -56 116 C-55.86387299 115.24138231 -55.72774597 114.48276463 -55.5874939 113.70115852 C-55.408284 112.70778921 -55.2290741 111.7144199 -55.04443359 110.69094849 C-54.86705658 109.7054558 -54.68967957 108.71996311 -54.50692749 107.70460701 C-47.44851132 70.04588418 -27.32491868 27.32491868 0 0 Z " fill="#0C7FC2" transform="translate(577,217)"/>
<path d="M0 0 C3.54307942 2.80841148 6.79894181 5.80992315 10 9 C10.63808594 9.61488281 11.27617188 10.22976563 11.93359375 10.86328125 C23.10427252 22.48178233 27.98177225 39.19654332 28 55 C26.86815909 73.3358228 19.29957141 88.77841532 6.078125 101.421875 C-8.45387908 114.0739303 -25.70735352 117.28797128 -44.45166016 116.22753906 C-61.73243276 114.68455381 -74.76104536 105.04968558 -86.13671875 92.67578125 C-89.36354362 88.77699285 -91.64398613 84.84709734 -93.69140625 80.21875 C-94.12783447 79.23841797 -94.5642627 78.25808594 -95.01391602 77.24804688 C-95.33932373 76.50619141 -95.66473145 75.76433594 -96 75 C-108.14573825 74.84598027 -120.29158264 74.70164639 -132.4375 74.5625 C-133.41190285 74.55133148 -134.38630569 74.54016296 -135.3902359 74.52865601 C-165.31048748 74.18787082 -195.23081107 73.93579022 -225.15234375 73.74609375 C-225.95772426 73.74098597 -226.76310476 73.73587818 -227.59289074 73.73061562 C-240.85606995 73.6466898 -254.11926663 73.56562826 -267.38246441 73.4847002 C-320.59075519 73.15988625 -373.79558191 72.74343455 -427 72 C-424.33619762 77.20701632 -421.6709108 82.41326943 -419.00439453 87.61889648 C-418.10231869 89.38041909 -417.20061076 91.14213016 -416.29931641 92.90405273 C-411.10140034 103.0646719 -405.86224526 113.20101543 -400.53453064 123.29423523 C-396.88010422 130.21805491 -393.2760881 137.16679188 -389.6875 144.125 C-388.39627882 146.62523024 -387.10440779 149.12512449 -385.8125 151.625 C-385.49258591 152.2441629 -385.17267181 152.86332581 -384.84306335 153.50125122 C-378.00477779 166.73360707 -371.14508066 179.95492994 -364.1875 193.125 C-359.37504963 202.23539362 -354.66014425 211.39578989 -349.9413147 220.55487061 C-345.57164856 229.03493712 -341.17817707 237.50112349 -336.7199707 245.93505859 C-331.3471647 256.11006768 -326.07651512 266.33840548 -320.78466797 276.55566406 C-314.30798708 289.05539238 -307.8295316 301.55404438 -301.25 314 C-296.98426535 322.07224807 -292.80372817 330.18761557 -288.62805176 338.30667114 C-279.34562211 356.35497493 -270.06606622 374.37222702 -260 392 C-238.98680137 357.6103439 -233.37152977 317.64412004 -231 278 C-230.95962616 277.33696869 -230.91925232 276.67393738 -230.87765503 275.99081421 C-229.88227889 259.14895643 -229.69237292 242.29189317 -229.46777344 225.42651367 C-229.416635 221.64433159 -229.36144188 217.8622086 -229.30664062 214.08007812 C-229.20057037 206.72010275 -229.09882052 199.36007668 -229 192 C-230.3003418 191.96241577 -230.3003418 191.96241577 -231.62695312 191.92407227 C-234.87737824 191.82830546 -238.12767671 191.72911456 -241.37792969 191.62768555 C-242.77827952 191.58466974 -244.17867064 191.54297507 -245.57910156 191.50268555 C-261.5360847 191.04173133 -261.5360847 191.04173133 -267 190 C-268.53297297 186.93405406 -268.12131455 183.72888147 -268.09765625 180.3671875 C-268.09553383 179.23943405 -268.09553383 179.23943405 -268.09336853 178.08889771 C-268.08776465 175.6842249 -268.07521157 173.27964473 -268.0625 170.875 C-268.0574855 169.24609509 -268.0529225 167.61718873 -268.04882812 165.98828125 C-268.03779397 161.99215173 -268.02052679 157.99609158 -268 154 C-264.62981337 152.87660446 -262.01736431 152.837357 -258.46313763 152.78604126 C-257.79287769 152.77505677 -257.12261776 152.76407228 -256.43204692 152.75275493 C-254.17004914 152.71685792 -251.90801422 152.68781401 -249.6459198 152.65869141 C-248.01417963 152.63420266 -246.38244576 152.60929196 -244.75071794 152.58399391 C-240.25411161 152.51549201 -235.75743872 152.45295155 -231.26073349 152.39133549 C-226.4159942 152.32390621 -221.57133765 152.25096718 -216.72666931 152.1786499 C-208.3273597 152.05399165 -199.92800653 151.93273164 -191.52861595 151.81365967 C-179.37786549 151.64132289 -167.22721059 151.46287762 -155.07657341 151.28274941 C-135.35570365 150.99047754 -115.63478313 150.70180193 -95.91381836 150.41601562 C-94.73280528 150.39889975 -93.55179219 150.38178387 -92.33499084 150.36414933 C-85.15177172 150.26006448 -77.96855142 150.15606161 -70.78533077 150.05208206 C-60.01598352 149.8961854 -49.24663785 149.74017978 -38.47729492 149.58398438 C-37.29862526 149.56689053 -36.1199556 149.54979668 -34.90556868 149.53218484 C-15.2635215 149.24721035 4.37847179 148.95867106 24.02042979 148.66761589 C36.14235619 148.48816956 48.26432186 148.31198929 60.38635626 148.13999033 C68.69120501 148.02195343 76.99600316 147.90072519 85.30076865 147.77696943 C90.09530905 147.70563984 94.88985949 147.63583364 99.68447876 147.56999969 C104.07208961 147.50973158 108.45961853 147.4452938 112.84711965 147.37751842 C114.43593215 147.35372429 116.02476879 147.33148208 117.61362658 147.31093335 C119.77104295 147.28281223 121.92830216 147.24908513 124.0856142 147.21395874 C125.8841884 147.18800157 125.8841884 147.18800157 127.71909744 147.16152 C130.91057776 147.00440229 133.88612044 146.72135946 137 146 C138.63322812 143.91089335 138.63322812 143.91089335 139.6875 141.1875 C147.37650485 125.78946685 161.0072587 116.52401284 177 111 C183.03110148 109.20510403 188.47007477 108.64532859 194.75 108.6875 C195.63107422 108.69313965 196.51214844 108.6987793 197.41992188 108.70458984 C213.06558215 108.9948565 226.245925 114.7009749 238 125 C238.61488281 125.53238281 239.22976563 126.06476563 239.86328125 126.61328125 C252.49241064 138.34633051 258.55243312 155.36934254 259.3125 172.3125 C258.78587835 190.44803309 250.99176485 207.41985542 238 220 C223.1160423 232.07282235 206.13394595 237.49388388 187.046875 235.7265625 C179.46272577 234.67431143 172.87056466 232.34167791 166 229 C165.15695312 228.59136719 164.31390625 228.18273437 163.4453125 227.76171875 C150.93038276 220.98446447 141.73219359 209.87538868 136 197 C135.25444798 194.34960547 134.64017666 191.67886121 134 189 C133.41439961 189.00092179 132.82879923 189.00184359 132.22545338 189.00279331 C112.25447584 189.03361515 92.28349753 189.051848 72.3125 189.0625 C71.52262223 189.0629343 70.73274446 189.06336861 69.91893101 189.06381607 C9.40294465 189.09615071 -51.11012675 188.85525822 -111.625 188.5 C-113.15395692 188.49103943 -113.15395692 188.49103943 -114.71380186 188.48189783 C-121.81921328 188.44021538 -128.92462227 188.39813647 -136.0300293 188.35571289 C-136.9215443 188.35039138 -137.8130593 188.34506986 -138.73158991 188.33958709 C-156.82109176 188.23128461 -174.91053703 188.1148277 -193 188 C-193 214.73 -193 241.46 -193 269 C-184.688125 268.979375 -176.37625 268.95875 -167.8125 268.9375 C-145.52422108 268.91032564 -123.27334751 269.18982503 -101 270 C-100.85755859 269.22744873 -100.71511719 268.45489746 -100.56835938 267.65893555 C-98.54623469 258.19890122 -91.62744735 250.65026128 -85 244 C-84.07767578 243.04287109 -84.07767578 243.04287109 -83.13671875 242.06640625 C-70.92816346 230.32841626 -54.83584649 226.46467613 -38.41503906 226.50756836 C-20.62122361 226.9917846 -6.43744376 234.41573987 6 247 C18.69992578 260.88189907 22.78891642 276.86197054 22.27734375 295.2265625 C21.46730552 312.4155066 13.33435354 326.50017647 1 338 C-12.14229522 349.29974167 -28.41501101 354.89900662 -45.71875 353.75390625 C-62.62178507 351.81280568 -77.96762635 345.16870453 -89.421875 332.2734375 C-95.80658248 324.1532894 -101.09216186 315.24599726 -103 305 C-104.24837646 305.06566162 -105.49675293 305.13132324 -106.78295898 305.19897461 C-120.2071305 305.88390547 -133.62408043 306.29439946 -147.0625 306.5625 C-148.07772736 306.58367889 -149.09295471 306.60485779 -150.13894653 306.62667847 C-166.42800348 306.96470403 -182.70723112 307.14171417 -199 307 C-199.14695312 308.25167969 -199.29390625 309.50335937 -199.4453125 310.79296875 C-205.67165834 361.24035644 -220.70092601 420.76292703 -255 460 C-256.05574219 461.38445312 -256.05574219 461.38445312 -257.1328125 462.796875 C-257.74898437 463.52390625 -258.36515625 464.2509375 -259 465 C-259.66 465 -260.32 465 -261 465 C-261 465.66 -261 466.32 -261 467 C-264 466 -264 466 -265.46704102 463.61767578 C-266.22778931 462.04735596 -266.22778931 462.04735596 -267.00390625 460.4453125 C-267.57423584 459.28330322 -268.14456543 458.12129395 -268.73217773 456.92407227 C-269.03050507 456.30476837 -269.3288324 455.68546448 -269.63619995 455.0473938 C-270.88555911 452.45454033 -272.15678537 449.87264039 -273.42732239 447.29011536 C-274.06460052 445.9945638 -274.70082029 444.6984911 -275.33598328 443.40190125 C-277.78496297 438.40849473 -280.32201402 433.4702973 -282.9375 428.5625 C-287.07302495 420.77676764 -291.14168725 412.95764104 -295.1875 405.125 C-295.50531433 404.5099057 -295.82312866 403.8948114 -296.15057373 403.26107788 C-297.78080988 400.10590645 -299.41058757 396.9504986 -301.04003906 393.79492188 C-304.21149254 387.65355199 -307.38696386 381.51425956 -310.5625 375.375 C-311.0268042 374.4773291 -311.0268042 374.4773291 -311.50048828 373.56152344 C-320.289166 356.57038516 -329.07977934 339.58027487 -337.9375 322.625 C-344.35329344 310.34254154 -350.71550511 298.03248433 -357.07666016 285.72167969 C-359.90469304 280.2488875 -362.73532376 274.7774391 -365.5657959 269.3059082 C-367.12597962 266.28991998 -368.68604457 263.27387032 -370.24609375 260.2578125 C-370.70986923 259.36119904 -370.70986923 259.36119904 -371.18301392 258.44647217 C-373.06832759 254.80152013 -374.95334771 251.15641644 -376.83815002 247.51119995 C-385.54709713 230.66807409 -394.26869528 213.83154959 -403 197 C-405.31269235 192.54176641 -407.6252198 188.08344738 -409.9375 183.625 C-410.51105225 182.51914551 -411.08460449 181.41329102 -411.67553711 180.27392578 C-414.71824745 174.40581123 -417.7579662 168.53616625 -420.79296875 162.6640625 C-421.1089502 162.05272461 -421.42493164 161.44138672 -421.75048828 160.81152344 C-424.41737489 155.6517367 -424.41737489 155.6517367 -425.58526611 153.39196777 C-429.64227275 145.54312171 -433.71669493 137.70367275 -437.8125 129.875 C-442.9215417 120.1071454 -447.96404604 110.30565343 -453 100.5 C-458.07863501 90.61157419 -463.16396861 80.72728979 -468.3125 70.875 C-469.00327637 69.55205933 -469.00327637 69.55205933 -469.70800781 68.20239258 C-471.72262375 64.34694434 -473.7406042 60.49331842 -475.76513672 56.64306641 C-477.59673671 53.15960513 -479.42351117 49.67364328 -481.25 46.1875 C-481.82403564 45.10001465 -482.39807129 44.0125293 -482.98950195 42.89208984 C-483.77587036 41.3889624 -483.77587036 41.3889624 -484.578125 39.85546875 C-485.04637695 38.96496826 -485.51462891 38.07446777 -485.99707031 37.15698242 C-487 35 -487 35 -487 33 C-436.51090434 32.26964332 -386.02022998 31.82218871 -335.52734375 31.46484375 C-334.75795599 31.45939846 -333.98856823 31.45395316 -333.19586569 31.44834286 C-314.13031868 31.31356829 -295.06474448 31.18284402 -275.99915893 31.05364962 C-263.71500525 30.97039232 -251.43086315 30.88558215 -239.14672852 30.79956055 C-238.33111318 30.79384928 -237.51549785 30.78813801 -236.6751669 30.78225368 C-235.8606733 30.77654999 -235.04617971 30.7708463 -234.20700449 30.76496977 C-232.56561753 30.75347609 -230.92423056 30.74198306 -229.28284359 30.73049068 C-228.47258854 30.7248175 -227.66233349 30.71914431 -226.82752525 30.71329921 C-214.13422912 30.62448366 -201.44092401 30.53696376 -188.74761803 30.44956721 C-184.21298016 30.41832863 -179.67834364 30.38690071 -175.1437081 30.35532539 C-167.98883103 30.30550798 -160.8339505 30.25626382 -153.67906176 30.20814722 C-150.42888896 30.18628013 -147.17871915 30.16407743 -143.92855263 30.14129257 C-127.61876666 30.02720868 -111.31018893 29.97660192 -95 30 C-94.69835938 29.06446289 -94.39671875 28.12892578 -94.0859375 27.16503906 C-89.3727845 13.42823253 -77.61164139 2.58217141 -65 -4 C-43.92962048 -13.29220632 -19.518673 -13.25741193 0 0 Z " fill="#70706F" transform="translate(1545,253)"/>
<path d="M0 0 C-1.10803845 3.38138364 -2.16820217 6.59533379 -3.87304688 9.72265625 C-4.24264526 10.41020996 -4.61224365 11.09776367 -4.99304199 11.80615234 C-5.39752563 12.55074707 -5.80200928 13.2953418 -6.21875 14.0625 C-10.60406537 22.2670997 -14.82043603 30.54832888 -18.96875 38.875 C-19.42536514 39.79066238 -19.42536514 39.79066238 -19.89120483 40.724823 C-22.09698213 45.14846742 -24.29897702 49.57398851 -26.5 54 C-29.00782669 59.04295952 -31.51723419 64.08512252 -34.03125 69.125 C-34.33748795 69.73899658 -34.64372589 70.35299316 -34.95924377 70.9855957 C-38.5397293 78.15807786 -42.16910579 85.2991627 -45.9375 92.375 C-50.2277969 100.43343721 -54.33134593 108.58128338 -58.40625 116.75 C-58.73376755 117.40647522 -59.0612851 118.06295044 -59.39872742 118.73931885 C-61.76866948 123.49146086 -64.13472823 128.24553213 -66.5 133 C-69.19534403 138.41795102 -71.89226475 143.83510802 -74.59375 149.25 C-74.92186361 149.90776869 -75.24997723 150.56553738 -75.58803368 151.24323845 C-79.30863703 158.69590465 -83.0700924 166.12135605 -86.98828125 173.47265625 C-91.30680474 181.57569012 -95.42059897 189.77676174 -99.51171875 197.99609375 C-99.84305439 198.66144764 -100.17439003 199.32680153 -100.51576614 200.01231766 C-103.60756219 206.22219505 -106.69426402 212.4345974 -109.77661133 218.64916992 C-111.48343226 222.0898733 -113.19433297 225.52852397 -114.90760231 228.96602058 C-115.54812612 230.25317848 -116.18714356 231.54108735 -116.82446861 232.82983208 C-120.91158909 241.09386783 -125.24939882 249.10017284 -130 257 C-220.69455299 255.2979009 -310.38919012 196.26410014 -372.75 134.4375 C-373.62527344 133.57527832 -374.50054688 132.71305664 -375.40234375 131.82470703 C-380.56315048 126.67073193 -385.29817313 121.33912581 -389.85302734 115.64379883 C-391.87403716 113.15511161 -393.96593037 110.76684512 -396.1171875 108.390625 C-400.0384259 104.02163273 -403.61874464 99.45607663 -407.125 94.75 C-407.76606689 93.89083984 -408.40713379 93.03167969 -409.06762695 92.14648438 C-420.71124332 76.39512009 -431.13893842 59.91295143 -441 43 C-441.40025391 42.32195313 -441.80050781 41.64390625 -442.21289062 40.9453125 C-447.26324767 32.3760525 -451.75264454 23.58974829 -456.0625 14.625 C-456.55242432 13.60688232 -457.04234863 12.58876465 -457.54711914 11.53979492 C-458.22182251 10.11630737 -458.22182251 10.11630737 -458.91015625 8.6640625 C-459.31371338 7.81279785 -459.71727051 6.9615332 -460.13305664 6.08447266 C-461 4 -461 4 -461 2 C-363.8616612 1.41413113 -266.72310897 0.90461263 -169.58389091 0.48761183 C-160.57840677 0.44894215 -151.57292493 0.40976618 -142.56744385 0.37039185 C-130.26283955 0.31665223 -117.95822994 0.26427521 -105.65361595 0.21280289 C-101.13455199 0.19387371 -96.61549018 0.17452236 -92.09642982 0.15475082 C-61.39745628 0.02089922 -30.69925893 -0.02411398 0 0 Z " fill="#FEFEFE" transform="translate(1017,678)"/>
<path d="M0 0 C1.61783713 0.00503291 3.23567581 0.0095926 4.85351562 0.01367188 C8.75654967 0.02451754 12.65950695 0.04167977 16.5625 0.0625 C3.33661741 26.81079924 -10.59793985 53.21146688 -24.72109985 79.49472046 C-29.25760672 87.94058901 -33.72285538 96.42065431 -38.125 104.9375 C-42.07271473 112.57515849 -46.09999706 120.15789991 -50.25 127.6875 C-55.50737742 137.23019912 -60.50507714 146.89536097 -65.47668457 156.58862305 C-70.16575421 165.72587222 -74.96586546 174.78550219 -79.9296875 183.77734375 C-84.40760095 191.92449086 -88.65967736 200.1833045 -92.90805054 208.45135498 C-96.94128469 216.29599476 -101.04640435 224.09121944 -105.3125 231.8125 C-110.76349113 241.68402093 -115.91206952 251.70056215 -121.05072021 261.73669434 C-125.84795507 271.10092635 -130.74660201 280.39009666 -135.83984375 289.59765625 C-140.37007964 297.83556488 -144.65326575 306.19505129 -148.9375 314.5625 C-154.12777391 324.69935562 -159.39969157 334.7705986 -164.91015625 344.73828125 C-169.23656004 352.60340118 -173.34150377 360.57593131 -177.4375 368.5625 C-182.46651065 378.36794955 -187.58626459 388.10473167 -192.91650391 397.75097656 C-197.85834019 406.73582856 -202.5336469 415.85631545 -207.18774414 424.99267578 C-210.69748816 431.84501054 -214.36489233 438.5276031 -218.4375 445.0625 C-220.62499086 442.27820326 -222.37307947 439.48437169 -224.00390625 436.34375 C-224.48424316 435.42174805 -224.96458008 434.49974609 -225.45947266 433.54980469 C-225.96784668 432.56399414 -226.4762207 431.57818359 -227 430.5625 C-227.53157715 429.53801758 -228.0631543 428.51353516 -228.61083984 427.45800781 C-232.40450534 420.12441856 -236.11081141 412.74971726 -239.78295898 405.35473633 C-244.85280404 395.17131435 -250.18011677 385.12271023 -255.5625 375.1015625 C-259.92263651 366.98203345 -264.1156833 358.79593475 -268.20947266 350.5390625 C-270.73799049 345.43980108 -273.27406288 340.34432949 -275.8125 335.25 C-276.31740967 334.23188232 -276.82231934 333.21376465 -277.3425293 332.16479492 C-280.52352943 325.78233004 -283.79599343 319.45647526 -287.12890625 313.15234375 C-292.34031483 303.29275947 -297.41796649 293.36730296 -302.4770813 283.42889404 C-305.10674376 278.26357786 -307.74093612 273.1005727 -310.375 267.9375 C-310.89667252 266.91482025 -311.41834503 265.8921405 -311.95582581 264.83847046 C-316.11169546 256.69418663 -320.2839674 248.55850145 -324.47320557 240.43133545 C-325.4891185 238.45862976 -326.50238825 236.48458572 -327.51513672 234.51025391 C-330.55179003 228.59868685 -333.61567784 222.70531646 -336.76496887 216.85281372 C-338.21603732 214.15358357 -339.65459624 211.44777752 -341.09249878 208.74151611 C-341.77274688 207.47061248 -342.45955636 206.20319579 -343.15335083 204.93963623 C-344.10124783 203.21320628 -345.02585335 201.47404895 -345.94921875 199.734375 C-346.47990967 198.7556543 -347.01060059 197.77693359 -347.55737305 196.76855469 C-348.4375 194.0625 -348.4375 194.0625 -347.74731445 191.42871094 C-346.58656046 189.33178127 -345.42136839 187.43385244 -343.96875 185.53125 C-343.24328979 184.57255005 -343.24328979 184.57255005 -342.50317383 183.59448242 C-341.98650146 182.92392822 -341.4698291 182.25337402 -340.9375 181.5625 C-340.13445435 180.50736206 -340.13445435 180.50736206 -339.31518555 179.4309082 C-338.21843467 177.9918189 -337.11907243 176.55471596 -336.01708984 175.11962891 C-334.5850347 173.25463715 -333.16024587 171.38440726 -331.73828125 169.51171875 C-324.43132866 159.913999 -316.91466955 150.54997857 -308.7734375 141.64453125 C-307.51380777 140.25219806 -306.26006949 138.85386608 -305.04370117 137.42358398 C-299.88117141 131.37690315 -294.29637753 125.76946294 -288.66772461 120.16235352 C-287.00323723 118.5032268 -285.34416553 116.83881949 -283.68554688 115.17382812 C-278.10887531 109.59340533 -272.46683316 104.15703938 -266.4375 99.0625 C-265.46167969 98.20527344 -264.48585938 97.34804687 -263.48046875 96.46484375 C-242.34189669 78.21800521 -218.87044279 62.53060825 -194.4375 49.0625 C-193.22489502 48.38840088 -193.22489502 48.38840088 -191.98779297 47.70068359 C-177.58474942 39.74415219 -162.71720911 33.14957737 -147.4375 27.0625 C-146.50325195 26.68996094 -145.56900391 26.31742188 -144.60644531 25.93359375 C-98.93075671 7.97478111 -48.98078784 -0.26943246 0 0 Z " fill="#0C7FC2" transform="translate(938.4375,-0.0625)"/>
<path d="M0 0 C61.51986549 4.26642934 124.07664974 34.37059471 174 69 C174.67385742 69.46535156 175.34771484 69.93070312 176.04199219 70.41015625 C190.434527 80.38739197 203.90571931 91.38279553 217 103 C217.97195313 103.85851562 218.94390625 104.71703125 219.9453125 105.6015625 C232.38378175 116.79272007 244.88514743 128.46679396 255.18359375 141.6875 C256.94967901 143.93593543 258.8121917 146.02404973 260.75 148.125 C271.24773788 159.83321263 280.36560037 172.88041612 289 186 C289.54849609 186.82725586 290.09699219 187.65451172 290.66210938 188.50683594 C298.94416618 201.08618637 306.30264919 213.99392023 313.1875 227.375 C313.5514386 228.08050995 313.9153772 228.7860199 314.29034424 229.51290894 C317.45747428 235.67505215 320.55553651 241.79210387 323.11103821 248.23648071 C323.46625707 249.13046381 323.82147593 250.02444691 324.18745899 250.9455204 C324.45559752 251.62349867 324.72373606 252.30147694 325 253 C238.6170533 253.21090419 152.23768532 252.68459382 65.85660408 252.1831104 C49.64800315 252.08911083 33.43937835 252.00024539 17.23073689 251.91354198 C0.3778916 251.82334117 -16.4749309 251.72963074 -33.32773572 251.63215441 C-42.70900625 251.57795879 -52.09027948 251.52514568 -61.4715786 251.4761219 C-69.38209724 251.43475274 -77.29258889 251.39010199 -85.20306446 251.34116179 C-89.22502049 251.31637005 -93.24696988 251.29309126 -97.26895714 251.2739563 C-100.94966309 251.25640615 -104.6303159 251.23444892 -108.31097571 251.2090345 C-110.26398662 251.19667124 -112.21702527 251.18895373 -114.17006081 251.18142754 C-120.5266343 251.13284104 -126.69780785 250.84299143 -133 250 C-123.90487418 231.56244887 -114.42827794 213.32388884 -104.52050781 195.31005859 C-100.74547806 188.42465187 -97.10375154 181.47638362 -93.5 174.5 C-88.95564789 165.7027388 -84.29168125 156.98408543 -79.51953125 148.30859375 C-75.74512194 141.42351639 -72.10348364 134.475865 -68.5 127.5 C-63.95564789 118.7027388 -59.29168125 109.98408543 -54.51953125 101.30859375 C-50.74512194 94.42351639 -47.10348364 87.475865 -43.5 80.5 C-38.95640227 71.70419916 -34.29363527 62.98674645 -29.52172852 54.31298828 C-25.7238018 47.38577952 -22.06261803 40.39398222 -18.4375 33.375 C-14.29861161 25.36569165 -10.09368201 17.40034542 -5.75 9.5 C-5.28392334 8.65099121 -4.81784668 7.80198242 -4.33764648 6.92724609 C-1.13202412 1.13202412 -1.13202412 1.13202412 0 0 Z " fill="#40403E" transform="translate(978,3)"/>
<path d="M0 0 C2.26347723 2.85420065 3.96414741 5.7044141 5.56640625 8.97265625 C6.05302734 9.95685547 6.53964844 10.94105469 7.04101562 11.95507812 C7.54310547 12.98052734 8.04519531 14.00597656 8.5625 15.0625 C12.110943 22.28938323 15.75184945 29.44847307 19.52734375 36.55859375 C26.57448723 49.8591624 33.21585632 63.36622886 39.91650391 76.84338379 C49.39293913 95.90481857 49.39293913 95.90481857 59.21569824 114.78930664 C65.81277592 127.24370265 71.98611974 139.91962139 78.25927734 152.5390625 C84.15834697 164.39966055 90.06905205 176.24464445 96.27656555 187.94729614 C101.170341 197.18080899 105.92539301 206.48388124 110.63598633 215.81201172 C111.68445778 217.8818973 112.7386496 219.94889373 113.7980957 222.01318359 C115.35142814 225.04127064 116.88654679 228.07797317 118.41796875 231.1171875 C118.89485641 232.03797089 119.37174408 232.95875427 119.86308289 233.90744019 C120.2913588 234.76669098 120.7196347 235.62594177 121.16088867 236.51123047 C121.54153976 237.26000458 121.92219086 238.00877869 122.31437683 238.78024292 C123.37029262 242.19885047 122.56456089 244.82061109 121.05126953 247.98193359 C120.66567871 248.61437988 120.28008789 249.24682617 119.8828125 249.8984375 C119.22829102 250.97689941 119.22829102 250.97689941 118.56054688 252.07714844 C118.08681641 252.83543945 117.61308594 253.59373047 117.125 254.375 C116.63322266 255.16938477 116.14144531 255.96376953 115.63476562 256.78222656 C110.80358369 264.48442299 105.52815175 271.78799725 100 279 C99.32735107 279.88896973 99.32735107 279.88896973 98.64111328 280.79589844 C92.71187223 288.62326526 86.43365571 295.97227476 79.69921875 303.1171875 C77.58940965 305.37050026 75.55678343 307.64625314 73.5625 310 C66.64685913 317.98349718 58.97896755 325.52633947 50.921875 332.3515625 C49.55283043 333.52582431 48.2116349 334.73288755 46.890625 335.9609375 C39.70003461 342.64480843 31.97194718 348.53360082 24.12109375 354.40966797 C22.18810053 355.8589679 20.26505465 357.32042537 18.34375 358.78515625 C2.20985224 370.97377344 -15.10642754 381.60560482 -33 391 C-33.88316895 391.46615723 -34.76633789 391.93231445 -35.67626953 392.41259766 C-98.51653877 425.34649804 -167.44928282 439.57385752 -238 441 C-236.69769453 436.77289594 -235.08449031 433.02032728 -232.98046875 429.1328125 C-232.37702637 428.01229492 -231.77358398 426.89177734 -231.15185547 425.73730469 C-230.49717435 424.53314655 -229.84238653 423.32904643 -229.1875 422.125 C-228.50886425 420.86903822 -227.83064739 419.61285003 -227.15283203 418.35644531 C-225.43263353 415.17050833 -223.70694433 411.98758368 -221.97955322 408.80554199 C-220.50811098 406.09333535 -219.04126946 403.37864646 -217.57421875 400.6640625 C-214.91659862 395.74927454 -212.25358869 390.83743349 -209.58837891 385.92675781 C-206.91123808 380.99383986 -204.23647096 376.05963683 -201.5625 371.125 C-201.02939209 370.14128418 -200.49628418 369.15756836 -199.94702148 368.14404297 C-195.93046241 360.7282078 -191.93199265 353.30273935 -187.9375 345.875 C-183.67221192 337.94371788 -179.38490468 330.02529423 -175.0625 322.125 C-170.49463879 313.77501416 -165.9869276 305.39367225 -161.5 297 C-156.03372286 286.77479956 -150.51577845 276.57934074 -144.953125 266.40625 C-133.67486406 245.77712118 -122.558243 225.05958341 -111.42578125 204.3515625 C-105.47062469 193.27774873 -99.49512256 182.21589544 -93.46606445 171.18212891 C-88.16361423 161.47663363 -82.90013905 151.7501382 -77.63671875 142.0234375 C-76.01939391 139.0358255 -74.40059007 136.04902012 -72.78125 133.0625 C-67.15000815 122.67556923 -61.53359583 112.28091254 -55.9375 101.875 C-51.67221192 93.94371788 -47.38490468 86.02529423 -43.0625 78.125 C-38.4946372 69.77501126 -33.98720281 61.39352692 -29.5 53 C-21.38862957 37.83129211 -13.22094929 22.69408088 -4.8125 7.6875 C-4.43754395 7.01686523 -4.06258789 6.34623047 -3.67626953 5.65527344 C-1.12181916 1.12181916 -1.12181916 1.12181916 0 0 Z " fill="#949697" transform="translate(1150,500)"/>
<path d="M0 0 C-1.10803845 3.38138364 -2.16820217 6.59533379 -3.87304688 9.72265625 C-4.24264526 10.41020996 -4.61224365 11.09776367 -4.99304199 11.80615234 C-5.39752563 12.55074707 -5.80200928 13.2953418 -6.21875 14.0625 C-10.60406537 22.2670997 -14.82043603 30.54832888 -18.96875 38.875 C-19.42536514 39.79066238 -19.42536514 39.79066238 -19.89120483 40.724823 C-22.09698213 45.14846742 -24.29897702 49.57398851 -26.5 54 C-29.00782669 59.04295952 -31.51723419 64.08512252 -34.03125 69.125 C-34.33748795 69.73899658 -34.64372589 70.35299316 -34.95924377 70.9855957 C-38.5397293 78.15807786 -42.16910579 85.2991627 -45.9375 92.375 C-50.2277969 100.43343721 -54.33134593 108.58128338 -58.40625 116.75 C-58.73376755 117.40647522 -59.0612851 118.06295044 -59.39872742 118.73931885 C-61.76866948 123.49146086 -64.13472823 128.24553213 -66.5 133 C-69.19534403 138.41795102 -71.89226475 143.83510802 -74.59375 149.25 C-74.92186361 149.90776869 -75.24997723 150.56553738 -75.58803368 151.24323845 C-79.30863703 158.69590465 -83.0700924 166.12135605 -86.98828125 173.47265625 C-91.30680474 181.57569012 -95.42059897 189.77676174 -99.51171875 197.99609375 C-99.84305439 198.66144764 -100.17439003 199.32680153 -100.51576614 200.01231766 C-103.60756219 206.22219505 -106.69426402 212.4345974 -109.77661133 218.64916992 C-111.48343226 222.0898733 -113.19433297 225.52852397 -114.90760231 228.96602058 C-115.54812612 230.25317848 -116.18714356 231.54108735 -116.82446861 232.82983208 C-120.91158909 241.09386783 -125.24939882 249.10017284 -130 257 C-220.69455299 255.2979009 -310.38919012 196.26410014 -372.75 134.4375 C-373.62527344 133.57527832 -374.50054688 132.71305664 -375.40234375 131.82470703 C-380.56315048 126.67073193 -385.29817313 121.33912581 -389.85302734 115.64379883 C-391.87403716 113.15511161 -393.96593037 110.76684512 -396.1171875 108.390625 C-400.0384259 104.02163273 -403.61874464 99.45607663 -407.125 94.75 C-407.76606689 93.89083984 -408.40713379 93.03167969 -409.06762695 92.14648438 C-420.71124332 76.39512009 -431.13893842 59.91295143 -441 43 C-441.40025391 42.32195313 -441.80050781 41.64390625 -442.21289062 40.9453125 C-447.26324767 32.3760525 -451.75264454 23.58974829 -456.0625 14.625 C-456.55242432 13.60688232 -457.04234863 12.58876465 -457.54711914 11.53979492 C-458.22182251 10.11630737 -458.22182251 10.11630737 -458.91015625 8.6640625 C-459.31371338 7.81279785 -459.71727051 6.9615332 -460.13305664 6.08447266 C-461 4 -461 4 -461 2 C-363.8616612 1.41413113 -266.72310897 0.90461263 -169.58389091 0.48761183 C-160.57840677 0.44894215 -151.57292493 0.40976618 -142.56744385 0.37039185 C-130.26283955 0.31665223 -117.95822994 0.26427521 -105.65361595 0.21280289 C-101.13455199 0.19387371 -96.61549018 0.17452236 -92.09642982 0.15475082 C-61.39745628 0.02089922 -30.69925893 -0.02411398 0 0 Z M-405 33 C-404.05966128 34.74716447 -403.11647784 36.49279806 -402.17211914 38.23779297 C-401.64719376 39.21005829 -401.12226837 40.18232361 -400.58143616 41.18405151 C-398.43190881 45.01155871 -396.00668435 48.57070568 -393.4375 52.125 C-392.92646729 52.83946289 -392.41543457 53.55392578 -391.88891602 54.29003906 C-372.06035305 81.83623405 -349.49733812 110.14155116 -322.53515625 131.01953125 C-320.14200996 132.88906156 -317.86446715 134.85712929 -315.5859375 136.86352539 C-306.96402624 144.40106142 -297.54209859 150.69558529 -288 157 C-287.3694873 157.42023438 -286.73897461 157.84046875 -286.08935547 158.2734375 C-282.10440588 160.92488038 -278.07336607 163.48783935 -274 166 C-273.34225586 166.40895508 -272.68451172 166.81791016 -272.00683594 167.23925781 C-239.22962319 187.4460527 -202.16628177 201.77588007 -164.125 208 C-163.36461426 208.12487793 -162.60422852 208.24975586 -161.82080078 208.37841797 C-157.94162815 208.94251544 -154.70759104 209.34071897 -151 208 C-149.01443211 205.33781338 -149.01443211 205.33781338 -147.43359375 201.89453125 C-147.11829712 201.26793106 -146.80300049 200.64133087 -146.47814941 199.9957428 C-145.4485622 197.94223116 -144.4435856 195.87761214 -143.4375 193.8125 C-142.36477849 191.66190069 -141.28560844 189.51461596 -140.20619202 187.36737061 C-139.48468789 185.93094027 -138.76523856 184.49347601 -138.0478363 183.05499268 C-135.14907389 177.24984206 -132.0897607 171.5465722 -128.9375 165.875 C-124.27278268 157.42714974 -119.79442989 148.89029235 -115.375 140.3125 C-115.05216034 139.68600555 -114.72932068 139.05951111 -114.396698 138.41403198 C-113.12794566 135.95144123 -111.8594884 133.48869884 -110.59150696 131.02571106 C-104.73263211 119.6498583 -98.73069954 108.35265044 -92.67407227 97.08105469 C-92.03270522 95.88737496 -91.39134786 94.69369003 -90.75 93.5 C-90.27371658 92.61374939 -90.27371658 92.61374939 -89.78781128 91.70959473 C-84.36711009 81.61685773 -79.0598914 71.46947855 -73.80908203 61.28735352 C-70.04246157 53.98673437 -66.20312143 46.7328975 -62.2578125 39.52734375 C-60.85148254 37.17208816 -60.85148254 37.17208816 -61 35 C-86.19596014 33.75513704 -111.40444821 33.78306574 -136.62491012 33.69667697 C-142.88230225 33.67435812 -149.13967353 33.64715386 -155.39704895 33.62062073 C-165.95324704 33.57654797 -176.5094541 33.53576456 -187.06567383 33.49731445 C-197.71868142 33.45850683 -208.37167318 33.41699214 -219.0246582 33.37231445 C-220.32302955 33.36686942 -221.62140089 33.36142438 -222.95911682 33.35581434 C-224.25484213 33.35037976 -225.55056745 33.34494519 -226.88555717 33.33934593 C-286.25719907 33.09048372 -345.62782216 32.9227309 -405 33 Z " fill="#0B4D9E" transform="translate(1017,678)"/>
<path d="M0 0 C2.86035529 3.50006201 4.84826082 7.36669346 6.87890625 11.37890625 C7.43088684 12.45791954 7.43088684 12.45791954 7.99401855 13.55873108 C8.77954361 15.09515059 9.56340135 16.6324235 10.34573364 18.17047119 C12.3898571 22.18899304 14.44588543 26.20142266 16.5 30.21484375 C17.10026756 31.38901855 17.10026756 31.38901855 17.71266174 32.58691406 C20.45774822 37.95344769 23.23559448 43.30104736 26.0625 48.625 C30.6152954 57.21214818 35.05583133 65.8563243 39.5 74.5 C46.19699116 87.52757602 46.19699116 87.52757602 53 100.5 C56.03457487 106.22909671 59.02758362 111.97864475 61.99609375 117.7421875 C62.35556595 118.44005371 62.71503815 119.13791992 63.08540344 119.85693359 C64.9442936 123.46794389 66.79944594 127.08082458 68.6496582 130.69628906 C71.9014518 137.04268574 75.17266647 143.36809939 78.609375 149.6171875 C79.1360376 150.58350098 79.6627002 151.54981445 80.20532227 152.54541016 C81.16452775 154.29571133 82.13810965 156.03824245 83.12866211 157.77099609 C86.13536559 163.28493902 86.13536559 163.28493902 85.48828125 166.703125 C84.99714844 167.46109375 84.50601562 168.2190625 84 169 C83.4740625 169.8765625 82.948125 170.753125 82.40625 171.65625 C75.36377503 182.16223724 67.89936123 192.18845785 59.30078125 201.48828125 C57.43197256 203.52842384 55.62343233 205.59798706 53.8203125 207.6953125 C49.60605204 212.5244229 45.1038384 217.04280419 40.5625 221.5625 C39.75490234 222.37396484 38.94730469 223.18542969 38.11523438 224.02148438 C33.24056513 228.88829759 28.26100781 233.55378292 23 238 C22.09278198 238.76727417 22.09278198 238.76727417 21.16723633 239.55004883 C-34.40771484 286.08295469 -101.65482352 316.70791325 -174 324 C-169.2654075 314.28016011 -164.26682269 304.73677114 -159.05761719 295.26318359 C-154.45909151 286.88355346 -149.97257797 278.44722811 -145.5 270 C-140.71790013 260.97133242 -135.91635378 251.95655959 -131 243 C-126.12951578 234.12459487 -121.36621354 225.19486381 -116.625 216.25 C-110.84466389 205.34499814 -105.03417832 194.45748479 -99.17285156 183.59570312 C-96.17926186 178.04769791 -93.19175878 172.49656351 -90.21875 166.9375 C-89.90198303 166.34521606 -89.58521606 165.75293213 -89.2588501 165.1427002 C-88.61790562 163.94418083 -87.97697545 162.7456538 -87.33605957 161.54711914 C-82.63707102 152.76031495 -77.91466155 143.9877628 -73.125 135.25 C-67.83928215 125.60221192 -62.6756649 115.89162894 -57.52355957 106.17211914 C-52.1085513 95.95704865 -46.65816099 85.76210785 -41.16845703 75.58691406 C-37.24877664 68.32143844 -33.34321742 61.04852682 -29.4475708 53.7701416 C-27.25919285 49.68206834 -25.06882885 45.59505844 -22.87890625 41.5078125 C-21.61530734 39.14874426 -20.35219315 36.78942385 -19.08984375 34.4296875 C-17.22911611 30.95175427 -15.36464147 27.47583653 -13.5 24 C-12.94892578 22.96875 -12.39785156 21.9375 -11.83007812 20.875 C-8.04218482 13.82263138 -4.07447774 6.89057106 0 0 Z " fill="#FEFEFE" transform="translate(1147,577)"/>
<path d="M0 0 C58.90303877 7.50273343 115.28755541 32.05797095 161 70 C161.49322754 70.40831055 161.98645508 70.81662109 162.49462891 71.23730469 C194.72674486 97.98668913 223.18349732 129.44765182 244 166 C244 166.33 244 166.66 244 167 C216.33721132 167.13365748 188.67440878 167.26407751 161.01158905 167.39115143 C148.15241301 167.45028927 135.29324247 167.5103077 122.43408203 167.57275391 C49.95520599 167.92407368 -22.52034136 168.0708677 -95 168 C-93.74665345 165.63924954 -92.49207846 163.27916531 -91.23681641 160.91943359 C-90.88700211 160.26023422 -90.53718781 159.60103485 -90.17677307 158.92185974 C-86.71085099 152.41065055 -83.06008119 146.01478735 -79.375 139.625 C-77.96839099 137.17673258 -76.56397324 134.72721299 -75.16015625 132.27734375 C-74.80988876 131.66629288 -74.45962128 131.055242 -74.09873962 130.42567444 C-70.63061847 124.36830334 -67.21584309 118.28147932 -63.8125 112.1875 C-52.70877776 92.31058253 -41.46415476 72.51558499 -30.14404297 52.76123047 C-28.13672209 49.25804308 -26.13034629 45.75431797 -24.125 42.25 C-23.78961212 41.66402039 -23.45422424 41.07804077 -23.1086731 40.4743042 C-17.45631795 30.59420025 -11.8740709 20.67659598 -6.34033203 10.72949219 C-5.79747559 9.7552832 -5.25461914 8.78107422 -4.6953125 7.77734375 C-3.9839917 6.49718384 -3.9839917 6.49718384 -3.25830078 5.19116211 C-2.24090662 3.41950657 -1.13325321 1.69987982 0 0 Z " fill="#FEFEFE" transform="translate(990,51)"/>
<path d="M0 0 C-1.59505912 5.38332451 -3.96797027 10.20132681 -6.5 15.1875 C-6.94359863 16.06752686 -7.38719727 16.94755371 -7.84423828 17.85424805 C-12.02632267 26.11870271 -16.34275383 34.31041785 -20.67724609 42.49560547 C-29.27259997 58.76934857 -37.69675858 75.1334322 -46.14752197 91.48254395 C-61.62909154 121.4319912 -61.62909154 121.4319912 -69.18188477 135.73876953 C-74.5707402 145.95920026 -79.86906673 156.2268387 -85.18115234 166.48730469 C-110.73175841 215.83255571 -110.73175841 215.83255571 -118.75 231 C-123.39984293 239.79911404 -127.94882001 248.64961528 -132.5 257.5 C-137.81033613 267.82647558 -143.14589321 278.13725599 -148.57421875 288.40234375 C-151.61373075 294.15224862 -154.61818966 299.92044746 -157.625 305.6875 C-158.15907471 306.71182129 -158.69314941 307.73614258 -159.2434082 308.79150391 C-160.49588203 311.19419198 -161.74809984 313.59701298 -163 316 C-165.80076534 312.64879962 -168.08194465 309.31208731 -170.1796875 305.484375 C-170.77144775 304.41098877 -171.36320801 303.33760254 -171.97290039 302.23168945 C-172.60059326 301.08273193 -173.22828613 299.93377441 -173.875 298.75 C-174.5416538 297.53898578 -175.20889988 296.32829744 -175.87670898 295.11791992 C-177.24973733 292.62885571 -178.62095079 290.13880694 -179.99072266 287.64794922 C-182.99379454 282.19117201 -186.02331082 276.74923343 -189.0625 271.3125 C-189.63677734 270.28511719 -190.21105469 269.25773437 -190.80273438 268.19921875 C-194.74755108 261.16850166 -198.78903268 254.19943446 -202.875 247.25 C-208.46835274 237.73490748 -213.84453815 228.11484797 -219.15270996 218.43920898 C-223.41363322 210.67255298 -227.7113156 202.93131511 -232.125 195.25 C-236.66001171 187.34133427 -241.19355651 179.43210163 -245.6875 171.5 C-246.30061035 170.43040039 -246.9137207 169.36080078 -247.54541016 168.25878906 C-248.11179199 167.25557617 -248.67817383 166.25236328 -249.26171875 165.21875 C-250.01908325 163.8874707 -250.01908325 163.8874707 -250.79174805 162.52929688 C-252.03897671 159.91840803 -252.7825067 157.88742113 -253 155 C-252.09472656 153.078125 -252.09472656 153.078125 -250.640625 151.25 C-250.10743652 150.56574951 -249.57424805 149.88149902 -249.02490234 149.17651367 C-248.43918457 148.45826416 -247.8534668 147.74001465 -247.25 147 C-246.65525879 146.24887939 -246.06051758 145.49775879 -245.44775391 144.72387695 C-243.65008157 142.46707652 -241.83004862 140.2305933 -240 138 C-239.24638184 137.07646729 -239.24638184 137.07646729 -238.47753906 136.13427734 C-229.61783365 125.32863386 -220.16453782 115.0909781 -210.3125 105.1875 C-209.70696289 104.57729004 -209.10142578 103.96708008 -208.47753906 103.33837891 C-194.94283036 89.85135346 -179.77311117 77.75820653 -164 67 C-163.09967041 66.3819751 -163.09967041 66.3819751 -162.18115234 65.75146484 C-153.56777906 59.85595849 -144.78060237 54.3120394 -135.77050781 49.04394531 C-134.14623417 48.08622412 -132.5371189 47.10291516 -130.9296875 46.1171875 C-111.58070791 34.52719722 -90.15000456 25.69529361 -69 18 C-67.64285889 17.50040771 -67.64285889 17.50040771 -66.25830078 16.99072266 C-19.5731247 0 -19.5731247 0 0 0 Z " fill="#FEFEFE" transform="translate(881,48)"/>
<path d="M0 0 C11.88 0 23.76 0 36 0 C48.1566282 16.2088376 48.1566282 16.2088376 50.98046875 23.140625 C54.53281587 31.23056341 58.78015803 38.54639086 63.5 46 C64.88810861 48.26655052 66.27172828 50.53516982 67.6484375 52.80859375 C67.99512985 53.37918015 68.3418222 53.94976654 68.69902039 54.53764343 C74.03982075 63.3395671 79.26514465 72.21143005 84.49414062 81.08007812 C85.06665054 82.04874062 85.06665054 82.04874062 85.65072632 83.03697205 C86.67883534 84.77652729 87.70497827 86.51724413 88.73095703 88.25805664 C91.74065187 93.22143009 94.88365446 98.10288559 98 103 C98.33 69.01 98.66 35.02 99 0 C110.88 0 122.76 0 135 0 C135 55.77 135 111.54 135 169 C122.79 169 110.58 169 98 169 C88.20446802 156.61564886 88.20446802 156.61564886 86.3671875 151.26171875 C84.48191686 146.16997374 82.32270706 141.78996058 79.375 137.25 C78.67039859 136.09101262 77.96992376 134.92950721 77.2734375 133.765625 C76.91475586 133.17201172 76.55607422 132.57839844 76.18652344 131.96679688 C73.78299987 127.98268455 71.39299494 123.99044139 69 120 C67.96226495 118.27081811 66.92450498 116.54165117 65.88671875 114.8125 C64.1998233 112.00119033 62.51426902 109.18909902 60.83203125 106.375 C52.95393573 93.20928525 44.96322907 80.1159067 37 67 C36.67 100.66 36.34 134.32 36 169 C24.12 169 12.24 169 0 169 C0 113.23 0 57.46 0 0 Z " fill="#70706F" transform="translate(1264,1065)"/>
<path d="M0 0 C19.97459811 -0.58084453 39.23281058 5.51369818 54.015625 19.0390625 C61.39670085 26.11588381 61.39670085 26.11588381 62.73046875 30.1171875 C61.80427734 31.11685547 61.80427734 31.11685547 60.859375 32.13671875 C55.64421408 37.81227439 50.63767214 43.57342338 45.8359375 49.609375 C43.60277469 52.2692832 41.21759714 54.69516718 38.73046875 57.1171875 C38.03824219 56.04791016 38.03824219 56.04791016 37.33203125 54.95703125 C30.8223282 45.39831708 23.92538763 39.14857912 12.453125 36.55078125 C1.88702818 34.86808864 -6.94237801 36.61539687 -15.89453125 42.5546875 C-27.22659292 51.30618067 -32.77248675 64.39609405 -34.953125 78.24609375 C-36.63433797 93.50154482 -34.34175643 110.21968351 -25.01953125 122.8046875 C-17.86485333 131.42074644 -10.29404567 137.50725019 1.04296875 139.0546875 C10.31789869 139.58728152 19.53963306 137.09921891 26.73046875 131.1171875 C34.53462301 123.7850587 36.41458369 117.64426795 37.73046875 107.1171875 C25.85046875 107.1171875 13.97046875 107.1171875 1.73046875 107.1171875 C1.73046875 97.5471875 1.73046875 87.9771875 1.73046875 78.1171875 C25.82046875 78.1171875 49.91046875 78.1171875 74.73046875 78.1171875 C74.83359375 84.0571875 74.93671875 89.9971875 75.04296875 96.1171875 C75.08848877 97.95539063 75.13400879 99.79359375 75.1809082 101.6875 C75.46260723 121.44842579 69.14782057 138.36287535 55.73046875 153.1171875 C41.0057905 168.03497628 22.87338539 175.07432917 1.98046875 175.4921875 C-15.49090859 175.43787667 -32.26930434 168.78892407 -45.26953125 157.1171875 C-46.0790625 156.40046875 -46.88859375 155.68375 -47.72265625 154.9453125 C-65.42079854 138.33294581 -73.97168232 115.017963 -75.45703125 91.09765625 C-76.03130384 64.28630481 -67.14211032 40.03746156 -48.90234375 20.59375 C-35.58221644 7.79769328 -18.31086238 0.94548343 0 0 Z " fill="#70706F" transform="translate(1739.26953125,1061.8828125)"/>
<path d="M0 0 C78.92544732 0 78.92544732 0 104 25 C120.20337732 43.14581557 127.35207761 66.92151156 126 91 C124.01801088 115.03510755 114.13599971 135.98337371 95.71875 151.87109375 C67.02682734 174.33818836 36.88743795 169 0 169 C0 113.23 0 57.46 0 0 Z M37 35 C37 68 37 101 37 135 C53.65597095 133.88960194 64.42307029 131.15707201 75.6875 119.3125 C84.31390538 108.93723339 87.72906061 94.74634097 87.34375 81.453125 C85.88729813 66.82240392 81.08882955 53.26614483 69.39453125 43.68359375 C58.7097631 36.17113849 50.26429543 35 37 35 Z " fill="#70706F" transform="translate(848,1065)"/>
<path d="M0 0 C73.29238329 0 73.29238329 0 87.68359375 13.58984375 C96.66183348 23.10543448 97.39357971 35.1533221 97.2109375 47.54296875 C96.90031281 56.737076 93.67104213 64.74155078 88 72 C85.16013916 74.59392518 82.19182991 76.85792748 79 79 C79.7734375 79.21914062 80.546875 79.43828125 81.34375 79.6640625 C91.88866018 82.87451783 99.63898817 87.84595506 106 97 C112.24243539 109.39028842 113.15863944 124.72046586 109.4375 138.0625 C105.32602353 149.41594556 97.71473541 158.39370845 86.875 163.75 C58.79001989 174.50594983 30.69716541 169 0 169 C0 113.23 0 57.46 0 0 Z M36 30 C36 41.88 36 53.76 36 66 C47.38405019 66.30274021 47.38405019 66.30274021 57 62 C62.32463566 56.54224845 62.35489896 51.50340683 62.2734375 44.171875 C61.91436864 40.0066762 60.95792341 37.95792341 58 35 C50.8913423 29.69862816 44.75128742 30 36 30 Z M36 99 C36 112.2 36 125.4 36 139 C53.51110803 139.97271078 53.51110803 139.97271078 68.4375 133.625 C72.43905126 129.52584993 73.30095997 125.8367544 73.375 120.1875 C73.24586007 113.18811565 71.56152113 108.63075143 66.6875 103.625 C57.55312148 98.10188741 46.23658935 99 36 99 Z " fill="#70706F" transform="translate(301,1065)"/>
<path d="M0 0 C11.22 0 22.44 0 34 0 C46.59455557 33.08091551 59.13233148 66.18286961 71.60015869 99.31173706 C74.08703155 105.91969541 76.57526754 112.52713336 79.06689453 119.13330078 C81.31658535 125.09802039 83.56397892 131.0635991 85.80846024 137.03028107 C86.98444659 140.1563179 88.16182189 143.28181303 89.34124756 146.40655518 C90.63551705 149.8362968 91.92570337 153.26754659 93.21484375 156.69921875 C93.60112442 157.72004044 93.98740509 158.74086212 94.38539124 159.7926178 C94.73250656 160.71916672 95.07962189 161.64571564 95.43725586 162.6003418 C95.74094589 163.40674606 96.04463593 164.21315033 96.35752869 165.04399109 C97 167 97 167 97 169 C84.46 169 71.92 169 59 169 C55.8640394 161.47369457 52.84498708 154.06000679 50.1875 146.375 C49.87619141 145.49199219 49.56488281 144.60898438 49.24414062 143.69921875 C47 137.25779533 47 137.25779533 47 135 C27.2 135 7.4 135 -13 135 C-13.99 138.63 -14.98 142.26 -16 146 C-16.65391315 148.04401697 -17.32932614 150.0815315 -18.04296875 152.10546875 C-18.36031982 153.01192139 -18.6776709 153.91837402 -19.00463867 154.85229492 C-19.59015503 156.50322144 -19.59015503 156.50322144 -20.1875 158.1875 C-21.445625 161.755625 -22.70375 165.32375 -24 169 C-36.87 169 -49.74 169 -63 169 C-61.12149979 162.73833262 -59.2335808 156.68112694 -56.90234375 150.60546875 C-56.60034561 149.80945755 -56.29834747 149.01344635 -55.98719788 148.1933136 C-55.32492014 146.4487789 -54.66107783 144.70483753 -53.99584961 142.96142578 C-52.51023202 139.06763408 -51.03249667 135.17086333 -49.55410767 131.27432251 C-48.73074013 129.10439758 -47.9069766 126.93462287 -47.08285522 124.76498413 C-43.60464148 115.60524092 -40.14490456 106.43861641 -36.69140625 97.26953125 C-36.41934671 96.54721188 -36.14728718 95.8248925 -35.86698341 95.08068466 C-34.47345056 91.38060615 -33.08015656 87.68043774 -31.6869812 83.98022461 C-28.89922358 76.57623375 -26.10983428 69.17285759 -23.3203125 61.76953125 C-23.04986807 61.05175632 -22.77942364 60.3339814 -22.50078392 59.59445572 C-15.01394675 39.72456639 -7.50945278 19.86135212 0 0 Z M17 53 C13.19371493 61.8415387 9.78001012 70.79385962 6.49584961 79.83959961 C5.6766247 82.09240626 4.84921748 84.34210441 4.02148438 86.59179688 C3.49690148 88.03106992 2.97279471 89.4705166 2.44921875 90.91015625 C2.07901863 91.91321556 2.07901863 91.91321556 1.70133972 92.9365387 C0.67802233 95.77541846 0 97.95522917 0 101 C11.22 101 22.44 101 34 101 C32.52732766 94.04172197 32.52732766 94.04172197 30.48779297 87.39819336 C30.2076535 86.61806381 29.92751404 85.83793427 29.6388855 85.03416443 C29.34297516 84.2275386 29.04706482 83.42091278 28.7421875 82.58984375 C28.43427277 81.73693253 28.12635803 80.8840213 27.80911255 80.00526428 C26.83623404 77.31410723 25.85576244 74.62579252 24.875 71.9375 C24.20912885 70.09979284 23.54375952 68.26190378 22.87890625 66.42382812 C21.25839345 61.94709645 19.63107067 57.47289521 18 53 C17.67 53 17.34 53 17 53 Z " fill="#70706F" transform="translate(1568,1065)"/>
<path d="M0 0 C1.39120471 0.00015906 2.78241534 0.00585033 4.17358398 0.01586914 C5.27016579 0.01799156 5.27016579 0.01799156 6.38890076 0.02015686 C8.73253406 0.02577131 11.07607313 0.03832617 13.41967773 0.05102539 C15.00496282 0.05603853 16.59024939 0.06060176 18.17553711 0.06469727 C22.06945383 0.07574542 25.96329979 0.09301967 29.85717773 0.11352539 C33.69870975 9.06257359 37.16445031 18.12472213 40.55706787 27.25082397 C42.19829021 31.66421453 43.84806563 36.07440573 45.49780273 40.48461914 C45.8480954 41.42128922 46.19838806 42.35795929 46.55929565 43.32301331 C50.74289346 54.49779572 54.98758576 65.64930209 59.23217773 76.80102539 C66.20606605 95.12739335 73.15508335 113.46291859 80.07543945 131.80957031 C80.72533234 133.53198599 81.3752345 135.25439817 82.02514648 136.97680664 C82.33609253 137.80143906 82.64703857 138.62607147 82.96740723 139.47569275 C84.67469537 143.99891673 86.39243685 148.51794828 88.12133789 153.03295898 C88.4930159 154.00444382 88.86469391 154.97592865 89.24763489 155.97685242 C89.96709839 157.85584546 90.68798419 159.73429466 91.41044617 161.61213684 C91.73100479 162.44943832 92.05156342 163.28673981 92.38183594 164.14941406 C92.66726761 164.89229172 92.95269928 165.63516937 93.2467804 166.40055847 C93.85717773 168.11352539 93.85717773 168.11352539 93.85717773 169.11352539 C80.98717773 169.11352539 68.11717773 169.11352539 54.85717773 169.11352539 C43.85717773 139.49814078 43.85717773 139.49814078 43.85717773 135.11352539 C23.72717773 135.11352539 3.59717773 135.11352539 -17.14282227 135.11352539 C-17.80282227 138.08352539 -18.46282227 141.05352539 -19.14282227 144.11352539 C-19.81941407 146.24414654 -20.53763698 148.3622341 -21.30688477 150.46118164 C-21.66733887 151.45384033 -22.02779297 152.44649902 -22.39916992 153.46923828 C-22.8508252 154.69247803 -23.30248047 155.91571777 -23.76782227 157.17602539 C-25.21157227 161.11540039 -26.65532227 165.05477539 -28.14282227 169.11352539 C-41.01282227 169.11352539 -53.88282227 169.11352539 -67.14282227 169.11352539 C-60.26025664 149.61292277 -60.26025664 149.61292277 -56.92797852 140.92211914 C-56.36991768 139.45829803 -56.36991768 139.45829803 -55.80058289 137.96490479 C-55.01142664 135.8952519 -54.22140219 133.82592986 -53.43054199 131.75692749 C-51.30503984 126.19535214 -49.18703086 120.6309236 -47.06860352 115.06665039 C-46.64392792 113.95154587 -46.21925232 112.83644135 -45.78170776 111.68754578 C-42.12122641 102.07018118 -38.49832901 92.43910943 -34.89282227 82.80102539 C-33.70822168 79.6368523 -32.52322684 76.47282693 -31.33813477 73.30883789 C-31.02616653 72.47593231 -30.7141983 71.64302673 -30.39277649 70.78488159 C-25.98776296 59.02700971 -21.57565254 47.27180792 -17.15400696 35.5201807 C-15.83091949 32.00360918 -14.50880346 28.48667968 -13.18908691 24.96884155 C-11.94393126 21.64983735 -10.69620437 18.33181141 -9.4465065 15.01451492 C-8.75579825 13.17901209 -8.06780222 11.34248937 -7.37985229 9.50595093 C-6.9672818 8.41231232 -6.5547113 7.31867371 -6.12963867 6.19189453 C-5.76850983 5.23110489 -5.40738098 4.27031525 -5.03530884 3.28041077 C-3.73982911 0.13509054 -3.73982911 0.13509054 0 0 Z M12.85717773 53.11352539 C8.29075087 65.22157204 3.74576887 77.33753483 -0.70532227 89.48852539 C-1.05143555 90.42647949 -1.39754883 91.36443359 -1.75415039 92.33081055 C-2.06932617 93.19496582 -2.38450195 94.05912109 -2.70922852 94.94946289 C-3.12603882 96.08714111 -3.12603882 96.08714111 -3.55126953 97.24780273 C-4.24356745 99.10506028 -4.24356745 99.10506028 -4.14282227 101.11352539 C7.40717773 101.11352539 18.95717773 101.11352539 30.85717773 101.11352539 C25.56641902 84.95266241 19.94868941 68.98888961 13.85717773 53.11352539 C13.52717773 53.11352539 13.19717773 53.11352539 12.85717773 53.11352539 Z " fill="#70706F" transform="translate(1164.142822265625,1064.886474609375)"/>
<path d="M0 0 C1.39120471 0.00015906 2.78241534 0.00585033 4.17358398 0.01586914 C5.27016579 0.01799156 5.27016579 0.01799156 6.38890076 0.02015686 C8.73253406 0.02577131 11.07607313 0.03832617 13.41967773 0.05102539 C15.00496282 0.05603853 16.59024939 0.06060176 18.17553711 0.06469727 C22.06945383 0.07574542 25.96329979 0.09301967 29.85717773 0.11352539 C35.36775001 13.58059062 40.53373186 27.16419839 45.62414551 40.79418945 C51.08718476 55.42070527 56.61288753 70.022383 62.16967773 84.61352539 C68.75431134 101.9099943 75.29760217 119.22146978 81.79467773 136.55102539 C82.17580719 137.56712891 82.55693665 138.58323242 82.94961548 139.63012695 C84.03285236 142.51883724 85.11516388 145.40789205 86.19702148 148.29711914 C86.50975006 149.13145981 86.82247864 149.96580048 87.14468384 150.82542419 C89.41991108 156.90864846 91.63736562 163.00904206 93.85717773 169.11352539 C80.98717773 169.11352539 68.11717773 169.11352539 54.85717773 169.11352539 C50.74738322 158.15407335 46.75273734 147.15094426 42.85717773 136.11352539 C13.15717773 135.61852539 13.15717773 135.61852539 -17.14282227 135.11352539 C-17.80282227 138.08352539 -18.46282227 141.05352539 -19.14282227 144.11352539 C-19.81941407 146.24414654 -20.53763698 148.3622341 -21.30688477 150.46118164 C-21.66733887 151.45384033 -22.02779297 152.44649902 -22.39916992 153.46923828 C-22.8508252 154.69247803 -23.30248047 155.91571777 -23.76782227 157.17602539 C-25.21157227 161.11540039 -26.65532227 165.05477539 -28.14282227 169.11352539 C-41.01282227 169.11352539 -53.88282227 169.11352539 -67.14282227 169.11352539 C-62.83082248 156.64428889 -58.37293942 144.26210506 -53.63684082 131.94857788 C-51.8770202 127.3719745 -50.12759603 122.79139502 -48.37719727 118.21118164 C-48.02014709 117.27744217 -47.66309692 116.3437027 -47.29522705 115.38166809 C-43.78837888 106.20281387 -40.33496842 97.00430024 -36.89282227 87.80102539 C-30.79322611 71.4997497 -24.66240391 55.21039824 -18.51782227 38.92602539 C-18.08594604 37.78096527 -17.65406982 36.63590515 -17.20910645 35.45614624 C-14.85112611 29.20466094 -12.49046966 22.95420373 -10.12414551 16.70587158 C-9.50554018 15.07171161 -8.88767921 13.43726948 -8.27087402 11.8024292 C-7.55629557 9.9090567 -6.8380472 8.01707027 -6.11938477 6.12524414 C-5.75151855 5.15417725 -5.38365234 4.18311035 -5.00463867 3.18261719 C-3.6654337 -0.03261288 -3.70397492 0.13379541 0 0 Z M12.85717773 53.11352539 C8.49413965 64.03556775 4.38863042 75.04300137 0.41967773 86.11352539 C0.0795163 87.05742126 0.0795163 87.05742126 -0.26751709 88.02038574 C-0.91566256 89.82100515 -1.558646 91.62348011 -2.20141602 93.42602539 C-2.57580811 94.4740332 -2.9502002 95.52204102 -3.3359375 96.60180664 C-4.2447734 98.99119457 -4.2447734 98.99119457 -4.14282227 101.11352539 C7.40717773 101.11352539 18.95717773 101.11352539 30.85717773 101.11352539 C25.58505354 84.95331862 19.84093817 69.02254293 13.85717773 53.11352539 C13.52717773 53.11352539 13.19717773 53.11352539 12.85717773 53.11352539 Z " fill="#70706F" transform="translate(201.142822265625,1064.886474609375)"/>
<path d="M0 0 C1.39120471 0.00015906 2.78241534 0.00585033 4.17358398 0.01586914 C5.27016579 0.01799156 5.27016579 0.01799156 6.38890076 0.02015686 C8.73253406 0.02577131 11.07607313 0.03832617 13.41967773 0.05102539 C15.00496282 0.05603853 16.59024939 0.06060176 18.17553711 0.06469727 C22.06945383 0.07574542 25.96329979 0.09301967 29.85717773 0.11352539 C38.34503034 22.00126507 46.69401092 43.93838043 54.91967773 65.92602539 C62.27998184 85.5998028 69.68061527 105.25752184 77.13419724 124.89611435 C77.84902603 126.77954726 78.56369907 128.66303922 79.27835083 130.54653931 C80.61660821 134.0729713 81.955458 137.59917752 83.29467773 141.12524414 C83.68340561 142.14899139 84.07213348 143.17273865 84.47264099 144.22750854 C85.03230309 145.69995529 85.03230309 145.69995529 85.60327148 147.20214844 C85.96533691 148.15721283 86.32740234 149.11227722 86.70043945 150.09628296 C87.53883043 152.28314655 88.39124819 154.46464934 89.25219727 156.64273071 C89.94031494 158.39134903 89.94031494 158.39134903 90.64233398 160.17529297 C91.06522705 161.23887527 91.48812012 162.30245758 91.92382812 163.39826965 C92.85717773 166.11352539 92.85717773 166.11352539 92.85717773 169.11352539 C80.31717773 169.11352539 67.77717773 169.11352539 54.85717773 169.11352539 C50.51016132 158.24598435 46.70241306 147.16857696 42.85717773 136.11352539 C13.15717773 135.61852539 13.15717773 135.61852539 -17.14282227 135.11352539 C-18.13282227 138.74352539 -19.12282227 142.37352539 -20.14282227 146.11352539 C-20.79673542 148.15754236 -21.4721484 150.19505689 -22.18579102 152.21899414 C-22.50314209 153.12544678 -22.82049316 154.03189941 -23.14746094 154.96582031 C-23.73297729 156.61674683 -23.73297729 156.61674683 -24.33032227 158.30102539 C-25.58844727 161.86915039 -26.84657227 165.43727539 -28.14282227 169.11352539 C-41.01282227 169.11352539 -53.88282227 169.11352539 -67.14282227 169.11352539 C-63.76805634 157.86430563 -63.76805634 157.86430563 -62.32788086 154.10253906 C-62.00189407 153.24567505 -61.67590729 152.38881104 -61.34004211 151.50598145 C-60.99394394 150.60690063 -60.64784576 149.70781982 -60.29125977 148.78149414 C-59.7348304 147.32277893 -59.7348304 147.32277893 -59.16716003 145.83459473 C-58.36975163 143.74528909 -57.57075076 141.65659065 -56.77029419 139.56845093 C-55.05355668 135.08985794 -53.34470855 130.60826666 -51.63520813 126.12690735 C-50.75450839 123.81855235 -49.8733919 121.51035632 -48.99186707 119.20231628 C-44.87087341 108.41147314 -40.78342441 97.60813654 -36.70532227 86.80102539 C-36.02331231 84.99485886 -35.34126458 83.18870659 -34.65917969 81.38256836 C-31.15495509 72.10197213 -27.65487783 62.81981618 -24.15693665 53.53684998 C-22.32879482 48.68557449 -20.49996045 43.83456019 -18.67111206 38.98355103 C-17.3601929 35.50528131 -16.05043283 32.02657665 -14.74072266 28.54785156 C-13.93079957 26.39914952 -13.12082489 24.25046692 -12.31079102 22.10180664 C-11.94797028 21.13707428 -11.58514954 20.17234192 -11.21133423 19.17837524 C-4.03074407 0.14559901 -4.03074407 0.14559901 0 0 Z M12.85717773 53.11352539 C8.95516029 62.08893039 5.59004786 71.20390966 2.35302734 80.43530273 C1.53319947 82.77123031 0.7062464 85.1045547 -0.12133789 87.43774414 C-0.64584621 88.9258775 -1.16995034 90.4141534 -1.69360352 91.90258789 C-1.94040359 92.59832916 -2.18720367 93.29407043 -2.44148254 94.01089478 C-3.71298735 97.47927861 -3.71298735 97.47927861 -4.14282227 101.11352539 C7.40717773 101.11352539 18.95717773 101.11352539 30.85717773 101.11352539 C28.04186523 93.13165039 28.04186523 93.13165039 25.16967773 84.98852539 C24.58871338 83.34094238 24.00774902 81.69335938 23.40917969 79.99584961 C20.24559827 71.02771281 17.06385203 62.0663517 13.85717773 53.11352539 C13.52717773 53.11352539 13.19717773 53.11352539 12.85717773 53.11352539 Z " fill="#70706F" transform="translate(749.142822265625,1064.886474609375)"/>
<path d="M0 0 C2.51700557 2.27650694 3.96232817 4.53350295 5.49609375 7.55078125 C5.96571533 8.46496826 6.43533691 9.37915527 6.91918945 10.32104492 C7.42023193 11.3082251 7.92127441 12.29540527 8.4375 13.3125 C9.52173077 15.42014969 10.60771072 17.52690035 11.6953125 19.6328125 C12.24735352 20.70176758 12.79939453 21.77072266 13.36816406 22.87207031 C15.78835445 27.51113064 18.29305741 32.10178259 20.8125 36.6875 C25.38154812 45.01618751 29.89532388 53.37290964 34.375 61.75 C35.65098875 64.13544497 36.92704809 66.52085219 38.203125 68.90625 C38.51925247 69.49724991 38.83537994 70.08824982 39.16108704 70.69715881 C47.42500663 86.14249867 55.75057583 101.55472031 64.1015625 116.953125 C68.71473002 125.46285149 73.29812238 133.98845141 77.87939453 142.51538086 C82.13064214 150.41612595 86.43663834 158.28531914 90.80126953 166.12402344 C91.22520996 166.88875977 91.64915039 167.65349609 92.0859375 168.44140625 C92.4576709 169.10857666 92.8294043 169.77574707 93.21240234 170.46313477 C94 172 94 172 94 173 C63.64290889 173.85474511 33.30460402 174.09188989 2.9375 174.0625 C2.04673515 174.06164398 1.15597031 174.06078796 0.23821259 174.05990601 C-10.84121206 174.04847171 -21.92060589 174.0283321 -33 174 C-39.89570422 127.18446526 -29.78948949 40.83375991 -1.1015625 1.40625 C-0.73804688 0.9421875 -0.37453125 0.478125 0 0 Z " fill="#FEFEFE" transform="translate(579,302)"/>
<path d="M0 0 C13.53 0 27.06 0 41 0 C47.49471907 17.18844079 53.78158247 34.43774634 59.9375 51.75 C60.77520652 54.10162809 61.61309686 56.45319071 62.45117188 58.8046875 C62.86654205 59.97044312 63.28191223 61.13619873 63.70986938 62.33728027 C64.54130993 64.67072423 65.37283152 67.00413932 66.20443726 69.33752441 C68.17773106 74.87627888 70.14831559 80.41595318 72.10987377 85.95887375 C73.03687492 88.57707085 73.96608097 91.1944824 74.89563179 93.81177521 C75.5552376 95.6716333 76.21184143 97.53255517 76.86839294 99.39349365 C77.26446243 100.50790833 77.66053192 101.622323 78.06860352 102.77050781 C78.41826675 103.75851379 78.76792999 104.74651978 79.12818909 105.76446533 C79.80285176 107.93680918 79.80285176 107.93680918 81 109 C81.27616402 108.21789154 81.27616402 108.21789154 81.5579071 107.41998291 C90.57058881 81.89939231 99.61943178 56.39353337 108.84484863 30.94900513 C111.34478528 24.05318912 113.82970167 17.1520037 116.3125 10.25 C118.1378125 5.17625 118.1378125 5.17625 120 0 C133.53 0 147.06 0 161 0 C159.12216395 5.63350814 157.22679 11.1914611 155.09375 16.72265625 C154.81732162 17.44355438 154.54089325 18.16445251 154.25608826 18.90719604 C153.33989294 21.29326775 152.42022209 23.67797859 151.5 26.0625 C151.17564972 26.90467072 150.85129944 27.74684143 150.51712036 28.61453247 C144.30020303 44.74991846 137.95015468 60.83168878 131.56933594 76.90283203 C127.07306852 88.22898201 122.59435645 99.56177114 118.14453125 110.90625 C117.89838011 111.53366152 117.65222897 112.16107304 117.3986187 112.80749702 C114.75405464 119.54834173 112.11194711 126.29014311 109.47241211 133.03295898 C104.75592099 145.06903783 99.9667604 157.06484763 95 169 C85.43 169 75.86 169 66 169 C65.07703125 166.63199219 64.1540625 164.26398438 63.203125 161.82421875 C55.61240361 142.35466146 48.00479449 122.89177961 40.375 103.4375 C39.96443359 102.39054962 39.55386719 101.34359924 39.13085938 100.2649231 C34.38107793 88.15397302 29.62572049 76.04522608 24.86316299 63.93929482 C24.11845004 62.04617822 23.37387942 60.1530057 22.62936401 58.2598114 C22.38493372 57.63826455 22.14050343 57.0167177 21.88866615 56.3763361 C21.39776219 55.12803452 20.9068653 53.87973017 20.41597557 52.631423 C18.78163346 48.47572327 17.14560954 44.32068791 15.50927734 40.16577148 C10.25344943 26.80878763 5.08532955 13.42290474 0 0 Z " fill="#70706F" transform="translate(960,1065)"/>
<path d="M0 0 C-0.64502023 4.2571335 -2.11313553 7.72598719 -3.94140625 11.61328125 C-4.22853989 12.22769577 -4.51567352 12.84211029 -4.81150818 13.47514343 C-5.72339838 15.42337328 -6.64281193 17.367941 -7.5625 19.3125 C-8.18474626 20.63843666 -8.80649639 21.96460626 -9.42773438 23.29101562 C-10.94609035 26.5300596 -12.47121103 29.76586484 -14 33 C-17.678129 32.15867857 -20.73449852 30.73324109 -24.125 29.0625 C-37.97868307 22.61497116 -51.4023012 22.63859166 -66 27 C-78.99506243 32.27687482 -87.28684213 39.77197715 -93.3125 52.5625 C-98.38211411 65.02983426 -98.52719072 78.30344258 -94 91 C-88.78897446 102.78007593 -81.11616307 112.36514772 -68.93359375 117.22265625 C-52.79246409 122.74826996 -37.62532381 122.75806112 -21.9765625 115.62109375 C-19.6199679 114.46259977 -17.29981954 113.26671776 -15 112 C-12.68840406 116.56915458 -10.39699798 121.14760015 -8.12548828 125.73681641 C-7.38994307 127.21588453 -6.64895284 128.69226064 -5.90185547 130.16552734 C-4.87789783 132.18660788 -3.87449581 134.2167356 -2.875 136.25 C-2.55587646 136.86883057 -2.23675293 137.48766113 -1.90795898 138.12524414 C-0.70059031 140.62323638 0.10517237 142.39087671 -0.375 145.171875 C-2.8329004 147.93701295 -5.84779939 149.40888976 -9.125 151 C-9.83205078 151.34812744 -10.53910156 151.69625488 -11.26757812 152.05493164 C-30.85023978 161.29869246 -56.46181694 163.5594584 -77.02441406 156.28369141 C-100.38534968 147.33800168 -119.51875415 130.95258389 -130.12744141 108.06933594 C-139.0629579 86.87811103 -139.55766591 63.80409953 -131.6875 42.25 C-127.68562888 32.50215871 -122.71995429 24.10162713 -116 16 C-115.51015625 15.37609375 -115.0203125 14.7521875 -114.515625 14.109375 C-113.3943386 12.6978733 -112.20402106 11.34162346 -111 10 C-110.34 10 -109.68 10 -109 10 C-109 9.34 -109 8.68 -109 8 C-105.20405566 4.73887943 -101.09135258 1.8775044 -97 -1 C-95.79923828 -1.84884766 -95.79923828 -1.84884766 -94.57421875 -2.71484375 C-66.25412117 -21.15470003 -27.47833261 -18.31888841 0 0 Z " fill="#70706F" transform="translate(137,1077)"/>
<path d="M0 0 C29.7 0 59.4 0 90 0 C90 11.22 90 22.44 90 34 C72.18 34 54.36 34 36 34 C36 45.22 36 56.44 36 68 C53.16 68 70.32 68 88 68 C88 78.89 88 89.78 88 101 C70.84 101 53.68 101 36 101 C36 112.22 36 123.44 36 135 C53.82 135 71.64 135 90 135 C90 146.22 90 157.44 90 169 C60.3 169 30.6 169 0 169 C0 113.23 0 57.46 0 0 Z " fill="#70706F" transform="translate(1830,1065)"/>
<path d="M0 0 C29.7 0 59.4 0 90 0 C90 11.22 90 22.44 90 34 C72.18 34 54.36 34 36 34 C36 45.22 36 56.44 36 68 C53.16 68 70.32 68 88 68 C88 78.89 88 89.78 88 101 C70.84 101 53.68 101 36 101 C36 112.22 36 123.44 36 135 C53.82 135 71.64 135 90 135 C90 146.22 90 157.44 90 169 C60.3 169 30.6 169 0 169 C0 113.23 0 57.46 0 0 Z " fill="#70706F" transform="translate(536,1065)"/>
<path d="M0 0 C36.63 0 73.26 0 111 0 C111 11.22 111 22.44 111 34 C98.46 34 85.92 34 73 34 C73 78.55 73 123.1 73 169 C61.12 169 49.24 169 37 169 C37 124.45 37 79.9 37 34 C24.79 34 12.58 34 0 34 C0 22.78 0 11.56 0 0 Z " fill="#70706F" transform="translate(1405,1065)"/>
<path d="M0 0 C7.92 0 15.84 0 24 0 C29.94 24.42 35.88 48.84 42 74 C42.33 74 42.66 74 43 74 C43.18570053 73.08767105 43.37140106 72.1753421 43.56272888 71.23536682 C45.30966909 62.65535086 47.06059159 54.0761561 48.81545925 45.49775791 C49.71761554 41.08704893 50.61834537 36.67605847 51.51586914 32.2644043 C52.38139252 28.01030787 53.25059229 23.75697808 54.12239265 19.50416374 C54.45505048 17.87806121 54.78636198 16.25168268 55.1163311 14.62503242 C55.57721186 12.35418453 56.04278519 10.08434775 56.50952148 7.81469727 C56.64618729 7.13568863 56.78285309 6.45667999 56.92366028 5.75709534 C57.88594784 1.11405216 57.88594784 1.11405216 59 0 C60.85369611 -0.08737645 62.71067541 -0.10698153 64.56640625 -0.09765625 C65.69111328 -0.09443359 66.81582031 -0.09121094 67.97460938 -0.08789062 C69.15861328 -0.07951172 70.34261719 -0.07113281 71.5625 -0.0625 C72.75037109 -0.05798828 73.93824219 -0.05347656 75.16210938 -0.04882812 C78.10812226 -0.03699675 81.05403681 -0.02051287 84 0 C85.5644152 7.47876706 87.12641837 14.95803645 88.6875 22.4375 C89.03106033 24.08277679 89.03106033 24.08277679 89.38156128 25.7612915 C92.20403682 39.28364752 95.01903194 52.80602116 97.64135742 66.36889648 C97.81256104 67.24489502 97.98376465 68.12089355 98.16015625 69.0234375 C98.30074463 69.75481934 98.44133301 70.48620117 98.58618164 71.23974609 C98.9505094 73.09323084 98.9505094 73.09323084 100 75 C100.18125931 74.24324478 100.36251862 73.48648956 100.54927063 72.70680237 C102.26617044 65.54188658 103.98689976 58.37790616 105.71183491 51.214921 C106.5983032 47.53318106 107.48333626 43.85110893 108.36499023 40.16821289 C109.21740561 36.60769479 110.07372029 33.04813446 110.93263817 29.48917961 C111.25810226 28.13769212 111.58220861 26.78587685 111.90487099 25.43371773 C116.61696113 5.69819463 116.61696113 5.69819463 120.07421875 1.453125 C124.33837814 -0.66472185 128.12516213 -0.43176105 132.8125 -0.25 C133.69615234 -0.23195313 134.57980469 -0.21390625 135.49023438 -0.1953125 C137.66062543 -0.14838513 139.83045519 -0.07664731 142 0 C141.39515515 4.84785858 140.44047434 9.39931134 139.1015625 14.09570312 C138.91104813 14.76869446 138.72053375 15.44168579 138.52424622 16.1350708 C137.89553789 18.35173394 137.26033666 20.56647843 136.625 22.78125 C136.17678889 24.35597218 135.72896139 25.93080359 135.28149414 27.5057373 C134.09880491 31.6641002 132.91050399 35.82083978 131.72113037 39.97729492 C130.77827968 43.27563642 129.83932491 46.57508005 128.90061951 49.87460327 C123.00324194 70.60332428 117.03064455 91.30967754 111 112 C103.41 112 95.82 112 88 112 C87.52054932 109.58703613 87.04109863 107.17407227 86.54711914 104.68798828 C84.96517676 96.72863691 83.38006897 88.76991837 81.79338932 80.81151009 C80.83118897 75.98483158 79.87006647 71.15794358 78.91137695 66.33056641 C77.98669696 61.6746455 77.05922533 57.01928878 76.12978935 52.36431503 C75.77512914 50.58545747 75.42148697 48.80639663 75.06886482 47.02713394 C74.57600312 44.54114879 74.07957447 42.05590148 73.58227539 39.57080078 C73.36325058 38.45949799 73.36325058 38.45949799 73.13980103 37.32574463 C72.40294557 33.55560784 72.40294557 33.55560784 71 30 C65.39 57.06 59.78 84.12 54 112 C46.74 112 39.48 112 32 112 C30.00817906 106.6884775 28.18570677 101.51382425 26.64331055 96.08129883 C26.4281781 95.33357712 26.21304565 94.58585541 25.99139404 93.81547546 C25.28675483 91.36353281 24.58670761 88.91030514 23.88671875 86.45703125 C23.38999482 84.7250732 22.89298527 82.99319705 22.39570618 81.26139832 C21.08819757 76.70501359 19.78459404 72.14752064 18.48181152 67.58978271 C17.17580188 63.02336526 15.86607464 58.45801457 14.55664062 53.89257812 C12.33844275 46.15762797 10.1257314 38.4211226 7.91488457 30.68406868 C6.5974158 26.0772581 5.26986302 21.47353669 3.93212891 16.87255859 C3.49898125 15.37736946 3.49898125 15.37736946 3.05708313 13.85197449 C2.55401745 12.11754657 2.04795819 10.38398228 1.53800964 8.65156555 C0.67397622 5.66510126 0 3.12698191 0 0 Z " fill="#0C7FC2" transform="translate(400,1273)"/>
<path d="M0 0 C11.88 0 23.76 0 36 0 C36 44.55 36 89.1 36 135 C53.82 135 71.64 135 90 135 C90 146.22 90 157.44 90 169 C60.3 169 30.6 169 0 169 C0 113.23 0 57.46 0 0 Z " fill="#70706F" transform="translate(428,1065)"/>
<path d="M0 0 C10.77214654 7.73292656 14.88453171 18.4748807 17.0703125 31.07421875 C17.53511588 35.8589594 17.40234375 40.68492369 17.40234375 45.4921875 C-1.40765625 45.4921875 -20.21765625 45.4921875 -39.59765625 45.4921875 C-37.65084918 56.45705027 -37.65084918 56.45705027 -30.8671875 63.5859375 C-26.06058005 65.50527128 -20.66748834 65.01054938 -15.59765625 64.4921875 C-12.1821235 62.78442112 -10.1840824 61.11163571 -7.5859375 58.3671875 C-3.20788347 55.6201732 0.66195757 56.0564984 5.71484375 56.2421875 C6.64619141 56.26023437 7.57753906 56.27828125 8.53710938 56.296875 C10.82658572 56.34383862 13.11392559 56.40949275 15.40234375 56.4921875 C14.34130024 64.9805356 9.99147507 71.98793256 3.2578125 77.25 C0.12507308 79.3472866 -3.11235312 81.05897874 -6.59765625 82.4921875 C-7.45746094 82.85054687 -8.31726562 83.20890625 -9.203125 83.578125 C-18.84749413 86.17511278 -32.60093712 86.33855412 -41.6015625 81.75 C-42.26027344 81.33492187 -42.91898438 80.91984375 -43.59765625 80.4921875 C-44.66306641 79.83863281 -44.66306641 79.83863281 -45.75 79.171875 C-54.65259251 73.10418625 -59.84332935 64.31648547 -62.18359375 53.87890625 C-64.21770001 37.24145221 -64.07273881 20.41202071 -53.49609375 6.64453125 C-40.40212912 -8.20068379 -16.70036666 -9.69374666 0 0 Z M-35.84765625 18.8671875 C-38.56374602 22.94132215 -39.59765625 25.55916481 -39.59765625 30.4921875 C-28.70765625 30.4921875 -17.81765625 30.4921875 -6.59765625 30.4921875 C-7.13859433 23.06055284 -7.13859433 23.06055284 -10.59765625 17.4921875 C-18.76225402 11.63288792 -28.66714182 11.2877556 -35.84765625 18.8671875 Z " fill="#0C7FC2" transform="translate(1049.59765625,1301.5078125)"/>
<path d="M0 0 C8.50352147 6.63158586 11.74959931 15.6273035 14.2890625 25.78515625 C14.2890625 31.72515625 14.2890625 37.66515625 14.2890625 43.78515625 C-4.1909375 43.78515625 -22.6709375 43.78515625 -41.7109375 43.78515625 C-39.61088888 54.50791438 -39.61088888 54.50791438 -33.7109375 61.78515625 C-28.52248321 63.51464101 -23.12149203 63.27217287 -17.7109375 62.78515625 C-14.29540475 61.07738987 -12.29736365 59.40460446 -9.69921875 56.66015625 C-5.32116472 53.91314195 -1.45132368 54.34946715 3.6015625 54.53515625 C4.53291016 54.55320312 5.46425781 54.57125 6.42382812 54.58984375 C8.71330447 54.63680737 11.00064434 54.7024615 13.2890625 54.78515625 C9.6820253 66.29221152 5.12044254 73.78398623 -5.7109375 79.78515625 C-15.15150981 84.57360538 -28.85975658 84.36432916 -39.015625 82.0234375 C-41.39955053 81.10682176 -43.51782233 80.08745969 -45.7109375 78.78515625 C-46.7628125 78.20765625 -47.8146875 77.63015625 -48.8984375 77.03515625 C-58.66049758 69.22550819 -63.14567064 59.75672988 -65.0859375 47.47265625 C-66.66433696 32.62963058 -65.2956119 18.11124713 -56.33203125 5.75 C-42.64658734 -10.83741756 -17.28973528 -11.16971787 0 0 Z M-38.5234375 17.47265625 C-41.36934258 21.24994149 -41.36934258 21.24994149 -41.7109375 28.78515625 C-30.8209375 28.78515625 -19.9309375 28.78515625 -8.7109375 28.78515625 C-10.44914229 19.90608483 -10.44914229 19.90608483 -15.7109375 13.78515625 C-23.47713869 9.03914441 -32.34745083 11.57115788 -38.5234375 17.47265625 Z " fill="#0C7FC2" transform="translate(612.7109375,1303.21484375)"/>
<path d="M0 0 C8.25 0 16.5 0 25 0 C27.09035165 7.24847504 29.17734451 14.49790085 31.25842285 21.74904346 C32.22486745 25.11593869 33.19278298 28.48239646 34.1640625 31.84790039 C35.28042454 35.71636011 36.39038212 39.58663161 37.5 43.45703125 C37.84998047 44.66647903 38.19996094 45.87592682 38.56054688 47.12202454 C38.88087891 48.24296005 39.20121094 49.36389557 39.53125 50.51879883 C39.81548828 51.50697098 40.09972656 52.49514313 40.39257812 53.51325989 C41 56 41 56 41 59 C41.66 59 42.32 59 43 59 C43.11328644 58.3935968 43.22657288 57.7871936 43.34329224 57.16241455 C44.52313084 51.03602661 45.98413277 45.04933686 47.6796875 39.046875 C48.06074142 37.69109344 48.06074142 37.69109344 48.44949341 36.30792236 C48.9835499 34.41496084 49.51977851 32.52261088 50.05810547 30.63085938 C50.87604205 27.74632511 51.67835841 24.85771918 52.48046875 21.96875 C53.00425352 20.11952095 53.52896128 18.27055304 54.0546875 16.421875 C54.2902536 15.56551453 54.5258197 14.70915405 54.76852417 13.82684326 C56.19387818 8.89352611 57.7504587 5.01222915 61 1 C63.82411765 0.05862745 65.52918032 -0.11725382 68.44921875 -0.09765625 C69.29677734 -0.09443359 70.14433594 -0.09121094 71.01757812 -0.08789062 C71.89865234 -0.07951172 72.77972656 -0.07113281 73.6875 -0.0625 C74.58017578 -0.05798828 75.47285156 -0.05347656 76.39257812 -0.04882812 C78.59512329 -0.03704981 80.79751613 -0.01974352 83 0 C81.7652093 6.05873867 80.18061694 11.87439614 78.19018555 17.72583008 C77.91507141 18.54667587 77.63995728 19.36752167 77.35650635 20.21324158 C76.45452859 22.90025049 75.54586062 25.58493864 74.63671875 28.26953125 C74.00108637 30.15596687 73.36574073 32.04249912 72.73066711 33.92912292 C71.40132112 37.87474685 70.06867832 41.81923719 68.73364258 45.76293945 C67.03309937 50.78714251 65.34052831 55.81398728 63.650424 60.84171009 C62.34005495 64.73697056 61.02553182 68.63081951 59.70978737 72.5242672 C59.08467322 74.37558155 58.46078289 76.22730966 57.83820152 78.07947731 C46.63741407 111.37400527 46.63741407 111.37400527 37.890625 116.15234375 C30.34666089 118.89905551 21.91323648 118.48071063 14 118 C13.34 117.67 12.68 117.34 12 117 C12 111.06 12 105.12 12 99 C14.96223958 98.83723958 17.92447917 98.67447917 20.88671875 98.51171875 C24.47275369 97.92229519 26.35617172 97.53591692 29 95 C30.03709587 88.66871756 28.38595867 83.00315921 26.2109375 77.12109375 C25.91559616 76.2869545 25.62025482 75.45281525 25.31596375 74.59339905 C24.34848518 71.86998713 23.36170085 69.15399952 22.375 66.4375 C21.69829973 64.54089508 21.02310872 62.64375104 20.34936523 60.74609375 C18.95136665 56.81380848 17.54632224 52.88415693 16.13525391 48.95654297 C13.05143124 40.36603223 10.01690009 31.75827859 6.99371338 23.14627075 C6.07348299 20.53121086 5.14631715 17.91868798 4.21826172 15.30639648 C3.6569955 13.71476245 3.09594798 12.12305127 2.53515625 10.53125 C2.27651291 9.80825211 2.01786957 9.08525421 1.75138855 8.34034729 C0.72915714 5.42248624 0 3.11695342 0 0 Z " fill="#0C7FC2" transform="translate(1229,1298)"/>
<path d="M0 0 C9.75081239 6.99439899 14.41715309 16.8197177 16.5625 28.375 C18.7832492 43.94007253 16.63584866 57.90876924 8.3125 71.375 C2.67387586 78.8423671 -4.74964824 82.21187419 -13.6875 84.375 C-25.82832227 85.69114471 -37.77089771 84.70531285 -48.0625 77.625 C-56.84547561 70.31800162 -61.27316872 60.63577092 -62.6875 49.375 C-63.58663864 33.77697603 -63.01872304 18.41880064 -52.9375 5.6875 C-39.88416961 -8.6385301 -16.033551 -9.66847297 0 0 Z M-37.0625 20.1875 C-40.07218442 26.09111174 -41.02934418 31.6760153 -40.9375 38.25 C-40.92734863 39.30272095 -40.92734863 39.30272095 -40.91699219 40.37670898 C-40.75264025 48.64112701 -39.69080251 55.66004137 -34.6875 62.375 C-29.99717771 65.82887567 -25.52423591 67.13161391 -19.6875 66.375 C-14.71837151 64.58611374 -11.50301448 61.79919966 -8.6875 57.375 C-5.89050556 51.19465324 -5.22055522 46.11761706 -5.3125 39.375 C-5.30089844 38.52421875 -5.28929687 37.6734375 -5.27734375 36.796875 C-5.30929616 29.85255022 -6.72385973 24.53085044 -10.4375 18.5625 C-14.18713509 14.91702144 -17.98683405 13.59144839 -23.125 12.9375 C-29.05427235 13.66565625 -33.18911348 15.60059491 -37.0625 20.1875 Z " fill="#0C7FC2" transform="translate(809.6875,1301.625)"/>
<path d="M0 0 C8.7633023 7.39519181 13.82056934 18.75293226 14.86425781 30.02050781 C15.80847125 45.31254556 15.12719136 60.46238961 4.56640625 72.57421875 C-4.85657026 81.61800103 -14.9822937 83.93342276 -27.68676758 83.86157227 C-34.16330899 83.66026062 -39.5731594 82.41155275 -45.375 79.4375 C-46.11105469 79.07527344 -46.84710937 78.71304687 -47.60546875 78.33984375 C-55.65490176 73.88471666 -59.74671837 66.97915191 -62.55859375 58.40234375 C-66.88062415 42.70654914 -66.84273574 25.5130991 -59.0234375 10.9140625 C-53.53119873 2.07361399 -46.21751038 -3.56864143 -36.0703125 -6.1484375 C-23.71617155 -8.04632002 -10.64750716 -7.03714554 0 0 Z M-38.75 18.8125 C-44.51681194 28.12811928 -43.70465358 41.66704774 -41.65234375 52.1171875 C-39.53158094 58.45371769 -36.9336142 61.56454516 -31 64.6875 C-26.47257234 65.98105076 -22.78581961 65.89817579 -18.3125 64.4375 C-13.20783352 60.9619824 -10.24653881 56.65596243 -8 50.9375 C-6.05909289 40.68708432 -5.9665455 28.61929486 -11.375 19.4375 C-15.20035006 15.05573538 -18.67329377 12.70237316 -24.5625 12.125 C-30.42578157 12.60559685 -34.59566705 14.65816705 -38.75 18.8125 Z " fill="#0C7FC2" transform="translate(1379.375,1302.5625)"/>
<path d="M0 0 C8.02815984 6.19120801 12.92764144 14.16865839 14.75390625 24.12109375 C16.02548476 34.41418715 14.25549127 43.84076184 8.0390625 52.27734375 C0.5475004 61.06111853 -7.20409089 65.934269 -18.75 67.25 C-29.72789539 67.79679172 -39.4391821 64.91330723 -47.82421875 57.5546875 C-56.31303444 48.45821256 -59.3738935 38.55357955 -59.08203125 26.33203125 C-58.28006564 16.77448814 -53.92258573 9.41273194 -47.359375 2.57421875 C-33.52839546 -9.08272957 -14.8910824 -10.07455979 0 0 Z " fill="#FEFEFE" transform="translate(419.75,465.625)"/>
<path d="M0 0 C6.79735658 5.46329594 8.5881372 13.40693261 10.08984375 21.6796875 C10.45526946 26.38035776 10.44220263 31.0453074 10.3828125 35.7578125 C10.37856766 37.05039978 10.37432281 38.34298706 10.36994934 39.67474365 C10.35863722 43.06795508 10.32929275 46.46076514 10.2958374 49.8538208 C10.26483751 53.33348159 10.25138092 56.8132089 10.23632812 60.29296875 C10.20440569 67.08870383 10.15338058 73.88417626 10.08984375 80.6796875 C7.8821357 80.76134246 5.6735395 80.81917238 3.46484375 80.8671875 C1.62019531 80.91939453 1.62019531 80.91939453 -0.26171875 80.97265625 C-4.22330306 80.65454188 -6.54926208 79.7578373 -9.91015625 77.6796875 C-13.93143049 72.35107449 -13.3340933 66.280233 -13.31640625 59.89453125 C-13.32724243 58.76068497 -13.33807861 57.62683868 -13.34924316 56.45863342 C-13.39503818 51.62049421 -13.40659359 46.78240897 -13.42138672 41.9440918 C-13.43707429 38.40654386 -13.4700706 34.86944459 -13.50390625 31.33203125 C-13.50088501 30.23922348 -13.49786377 29.14641571 -13.49475098 28.02049255 C-13.46119377 20.82326493 -13.46119377 20.82326493 -16.91015625 14.6796875 C-20.78742163 11.5778752 -24.98946866 10.52591601 -29.91015625 10.6796875 C-33.91051014 11.54404968 -36.98028807 12.71982357 -39.84765625 15.6796875 C-41.81763819 19.38788879 -42.05480608 22.39368335 -42.11547852 26.52807617 C-42.13542374 27.7290947 -42.15536896 28.93011322 -42.17591858 30.16752625 C-42.19263107 31.46446915 -42.20934357 32.76141205 -42.2265625 34.09765625 C-42.24713918 35.4385898 -42.26813584 36.77951696 -42.28953552 38.12043762 C-42.34468252 41.64670639 -42.39412419 45.17303298 -42.44238281 48.69940186 C-42.49265175 52.29900243 -42.54830964 55.89851923 -42.60351562 59.49804688 C-42.71100699 66.55852247 -42.81197381 73.61907543 -42.91015625 80.6796875 C-50.50015625 80.6796875 -58.09015625 80.6796875 -65.91015625 80.6796875 C-65.97841245 73.34197053 -66.03324569 66.00443218 -66.06559277 58.6664629 C-66.08113156 55.25774486 -66.10214858 51.84925856 -66.13647461 48.44067383 C-66.17584209 44.5060521 -66.18996273 40.57151837 -66.203125 36.63671875 C-66.21860886 35.43513626 -66.23409271 34.23355377 -66.25004578 32.99555969 C-66.2520772 22.59409162 -65.61206208 11.52469282 -58.5625 3.3203125 C-42.89470944 -12.23635897 -17.75619939 -11.56886897 0 0 Z " fill="#0C7FC2" transform="translate(895.91015625,1304.3203125)"/>
<path d="M0 0 C7.59 0 15.18 0 23 0 C23.01458252 1.82168701 23.02916504 3.64337402 23.04418945 5.52026367 C23.09589077 11.5474088 23.16119001 17.57427881 23.23571491 23.60117626 C23.28039218 27.25435862 23.31965377 30.90743015 23.34643555 34.56079102 C23.37249545 38.08826179 23.41291592 41.61530546 23.46318626 45.14251137 C23.48792576 47.13927679 23.49789298 49.13620755 23.50764465 51.13310242 C23.53733589 52.96443474 23.53733589 52.96443474 23.56762695 54.83276367 C23.57873001 55.90531906 23.58983307 56.97787445 23.60127258 58.08293152 C24.19424173 62.42106214 25.8125926 65.07646091 29.25 67.75 C34.12085647 69.96402567 38.11185651 70.53897353 43.1875 68.8125 C46.4849525 67.4066094 48.80026288 65.90365299 51 63 C52.00386795 59.92237543 52.12431113 57.09170625 52.12597656 53.86767578 C52.12978333 52.84626495 52.13359009 51.82485413 52.13751221 50.77249146 C52.13853943 49.6745224 52.13956665 48.57655334 52.140625 47.4453125 C52.15894895 45.11587561 52.17851887 42.78644824 52.19921875 40.45703125 C52.22821126 36.78775904 52.25000078 33.11910134 52.25048828 29.44970703 C52.25382195 25.90602198 52.28836365 22.36375191 52.328125 18.8203125 C52.3210553 17.72639191 52.3139856 16.63247131 52.30670166 15.50540161 C52.44244819 7.00675279 52.44244819 7.00675279 55.41699219 3.32373047 C59.59747702 -0.43712536 62.72786085 -0.12308965 68.125 -0.0625 C68.87910156 -0.05798828 69.63320312 -0.05347656 70.41015625 -0.04882812 C72.27347127 -0.03703499 74.13674555 -0.01909942 76 0 C76.05116734 7.2916358 76.08592757 14.58322443 76.10986328 21.875 C76.11985332 24.3499525 76.13344995 26.8248934 76.15087891 29.29980469 C76.42223295 68.85364676 76.42223295 68.85364676 66.4375 79.8125 C55.41878021 87.89673045 42.15037947 89.08006612 29 88 C18.89532401 85.96579827 9.96716144 81.52451634 4 73 C0.96916931 66.83009466 -0.12766016 61.65985509 -0.11352539 54.83276367 C-0.11344986 53.61187546 -0.11337433 52.39098724 -0.11329651 51.13310242 C-0.10813522 49.82460831 -0.10297394 48.5161142 -0.09765625 47.16796875 C-0.09578961 45.80748039 -0.09436687 44.44699135 -0.09336853 43.08650208 C-0.08956275 39.51744713 -0.07974914 35.94843331 -0.06866455 32.37939453 C-0.05840863 28.73275305 -0.05386197 25.08610489 -0.04882812 21.43945312 C-0.03812503 14.29295038 -0.02054404 7.14648222 0 0 Z " fill="#0C7FC2" transform="translate(1398,1298)"/>
<path d="M0 0 C6.54974034 5.06839719 8.56652071 11.6775187 10.08984375 19.6171875 C10.46505329 24.42993336 10.44129134 29.21024317 10.3828125 34.03515625 C10.3772017 35.38706486 10.37293864 36.73897966 10.36994934 38.09089661 C10.35861704 41.61070261 10.32925377 45.13012393 10.2958374 48.64978027 C10.2648824 52.25670166 10.25139027 55.86368656 10.23632812 59.47070312 C10.20436981 66.51968648 10.15331857 73.56841158 10.08984375 80.6171875 C7.8821357 80.69884246 5.6735395 80.75667238 3.46484375 80.8046875 C1.62019531 80.85689453 1.62019531 80.85689453 -0.26171875 80.91015625 C-4.23498096 80.59110415 -6.55303712 79.72892373 -9.91015625 77.6171875 C-12.05424455 74.40105506 -12.16575138 73.51980038 -12.19726562 69.8137207 C-12.21067993 68.83873123 -12.22409424 67.86374176 -12.23791504 66.85920715 C-12.24319214 65.80609848 -12.24846924 64.75298981 -12.25390625 63.66796875 C-12.26852905 62.58138474 -12.28315186 61.49480072 -12.29821777 60.37528992 C-12.34478303 56.89346002 -12.37892325 53.41168668 -12.41015625 49.9296875 C-12.45143135 45.36307434 -12.50522307 40.79685369 -12.56640625 36.23046875 C-12.57168335 35.18748123 -12.57696045 34.14449371 -12.58239746 33.06990051 C-12.64308981 22.61191398 -12.64308981 22.61191398 -17.47265625 13.6796875 C-21.28347942 10.93775375 -25.28333685 10.32750837 -29.91015625 10.6171875 C-33.81713299 11.61086945 -37.54481996 13.25592015 -39.91015625 16.6171875 C-41.50055984 20.73560864 -42.17130767 24.21841289 -42.22900391 28.62255859 C-42.2488736 29.78330902 -42.26874329 30.94405945 -42.28921509 32.13998413 C-42.3007663 33.37769562 -42.3123175 34.6154071 -42.32421875 35.890625 C-42.3435849 37.16950592 -42.36295105 38.44838684 -42.38290405 39.76602173 C-42.43243904 43.14925912 -42.4737586 46.53239132 -42.51104736 49.91577148 C-42.55121108 53.37493523 -42.60224669 56.83393713 -42.65234375 60.29296875 C-42.74826342 67.06761272 -42.8323423 73.84231235 -42.91015625 80.6171875 C-50.50015625 80.6171875 -58.09015625 80.6171875 -65.91015625 80.6171875 C-65.95630208 73.16463657 -65.99605779 65.71259021 -66.02001953 58.26000977 C-66.03001877 55.72971915 -66.04362254 53.19943991 -66.06103516 50.66918945 C-66.08555247 47.01250381 -66.09670049 43.35597218 -66.10546875 39.69921875 C-66.11579132 38.58513138 -66.12611389 37.47104401 -66.13674927 36.32319641 C-66.13839412 24.56201397 -65.91633146 10.69984934 -57.12109375 1.80859375 C-40.25534588 -11.66384628 -17.84722193 -11.62817377 0 0 Z " fill="#0C7FC2" transform="translate(974.91015625,1304.3828125)"/>
<path d="M0 0 C7.83063963 5.54123475 12.77078002 12.56624631 15.78515625 21.609375 C16.61523436 34.35991903 16.10531609 43.82714442 7.53515625 53.921875 C1.20423091 60.54387737 -5.79651199 65.42340439 -15.203125 65.9453125 C-16.6442827 65.97507824 -18.08588225 65.98757932 -19.52734375 65.984375 C-20.27991455 65.98276367 -21.03248535 65.98115234 -21.80786133 65.97949219 C-27.69743679 65.84961721 -32.18749156 64.7915232 -37.21484375 61.609375 C-38.76171875 60.743125 -38.76171875 60.743125 -40.33984375 59.859375 C-48.02201711 53.84723932 -53.30346449 46.27345146 -55.21484375 36.609375 C-56.21854142 24.61436512 -54.01025447 14.92789225 -46.1953125 5.61328125 C-33.67840985 -7.05175042 -15.15212383 -9.51350279 0 0 Z " fill="#FEFEFE" transform="translate(267.21484375,608.390625)"/>
<path d="M0 0 C7.39771299 5.7692062 10.55640309 13.0290138 13.2890625 21.78515625 C9.58154883 21.98943316 5.87548778 22.11310213 2.1640625 22.22265625 C1.11734375 22.28130859 0.070625 22.33996094 -1.0078125 22.40039062 C-8.69025917 22.57057141 -8.69025917 22.57057141 -11.71069336 20.24633789 C-13.30859375 18.34765625 -13.30859375 18.34765625 -14.59008789 16.44140625 C-16.28351683 13.93907082 -17.78761871 13.39701367 -20.7109375 12.78515625 C-26.37845383 12.21629773 -30.95691958 12.32768867 -35.7109375 15.78515625 C-43.00606209 24.91888947 -42.44078155 35.60990971 -41.7109375 46.78515625 C-40.66617317 53.03728925 -38.16830914 57.32778461 -33.7109375 61.78515625 C-28.52248321 63.51464101 -23.12149203 63.27217287 -17.7109375 62.78515625 C-14.29540475 61.07738987 -12.29736365 59.40460446 -9.69921875 56.66015625 C-5.32116472 53.91314195 -1.45132368 54.34946715 3.6015625 54.53515625 C4.53291016 54.55320312 5.46425781 54.57125 6.42382812 54.58984375 C8.71330447 54.63680737 11.00064434 54.7024615 13.2890625 54.78515625 C11.66997204 64.12730822 6.7771295 71.47273412 -0.8984375 76.97265625 C-12.06281591 83.90038943 -26.26671428 84.96201621 -39.015625 82.0234375 C-41.39955053 81.10682176 -43.51782233 80.08745969 -45.7109375 78.78515625 C-46.7628125 78.20765625 -47.8146875 77.63015625 -48.8984375 77.03515625 C-57.75183555 69.95243781 -62.78451212 60.99804569 -64.7109375 49.78515625 C-65.7800138 34.2960839 -66.05184203 18.79443602 -56.453125 5.78125 C-42.19539035 -10.55440562 -17.65056135 -11.40282297 0 0 Z " fill="#0C7FC2" transform="translate(731.7109375,1303.21484375)"/>
<path d="M0 0 C6.26106755 4.72899556 10.74641141 11.66730312 12.30859375 19.37109375 C12.46521484 20.67240234 12.46521484 20.67240234 12.625 22 C8.87558747 22.17432891 5.12721491 22.28085841 1.375 22.375 C-0.22021484 22.45041016 -0.22021484 22.45041016 -1.84765625 22.52734375 C-4.80356846 22.58311568 -7.47293334 22.57177095 -10.375 22 C-12.94140625 19.09375 -12.94140625 19.09375 -14.375 16 C-19.19018707 12.64056716 -23.6965254 12.29761028 -29.375 13 C-33.85533801 14.24861879 -35.80519781 15.27619722 -38.6875 18.9375 C-43.42661376 28.70170852 -43.4530745 41.19513879 -40.703125 51.5234375 C-40.02412252 53.38723003 -39.20836749 55.19992622 -38.375 57 C-38.08625 57.78375 -37.7975 58.5675 -37.5 59.375 C-35.84166772 61.77036885 -34.13298416 62.11202693 -31.375 63 C-25.23562798 63.61752748 -19.41825722 64.0037053 -13.8125 61.25 C-12.28481891 59.83983284 -10.79502717 58.38617662 -9.3671875 56.875 C-4.98609497 54.12966786 -1.11726738 54.56424176 3.9375 54.75 C4.86884766 54.76804687 5.80019531 54.78609375 6.75976562 54.8046875 C9.04924197 54.85165112 11.33658184 54.91730525 13.625 55 C10.93343883 64.9004278 6.39307522 72.43928105 -2.48828125 77.921875 C-14.20922081 83.93261323 -28.71763491 85.60871629 -41.5 81.5625 C-50.04869559 77.75859929 -57.49092317 70.52911566 -61.375 62 C-67.25269973 46.27653322 -66.85321342 29.7030776 -61.375 14 C-56.84397857 4.52239009 -49.43432037 -1.69801961 -39.671875 -5.2734375 C-26.27976842 -9.50971611 -11.9049467 -7.34407723 0 0 Z " fill="#0C7FC2" transform="translate(1133.375,1303)"/>
<path d="M0 0 C7.15916043 6.12973867 11.32633587 13.17440927 12.41015625 22.546875 C12.83910575 33.325606 10.73777853 42.36458055 3.3125 50.4375 C-4.38200545 57.44577821 -12.82375581 60.3472203 -23.05859375 60.2109375 C-33.18755948 59.48455749 -40.39683663 55.01435317 -47.25 47.75 C-54.1428121 39.08690282 -55.12239948 29.82647829 -54 19 C-52.30942368 11.24448113 -48.01785644 5.10251905 -42 0 C-28.05149918 -8.71323673 -13.89860598 -9.34426052 0 0 Z " fill="#FEFEFE" transform="translate(237,329)"/>
<path d="M0 0 C6.74217049 5.66021742 10.43240657 11.80503221 13.19140625 20.08203125 C13.988288 32.00460819 12.92308201 40.68703963 5.21875 50.00390625 C-1.76088683 57.1583702 -9.47331472 60.346285 -19.43359375 60.58203125 C-28.65632142 60.61933571 -35.49446082 57.55209469 -42.68359375 51.76953125 C-50.18877364 42.27768609 -53.86232128 34.40384515 -52.80859375 22.08203125 C-51.25742198 12.64808658 -46.31190912 5.71962445 -38.99609375 -0.29296875 C-27.20896843 -8.46900944 -11.75174295 -8.0251819 0 0 Z " fill="#FEFEFE" transform="translate(1759.80859375,397.91796875)"/>
<path d="M0 0 C6.469099 5.50245202 11.00429554 13.24928595 12.0390625 21.734375 C12.73370148 31.98029996 9.71701766 40.88326555 3.0390625 48.734375 C-4.24752591 55.51741868 -12.69611445 59.13385476 -22.7265625 58.9453125 C-31.57260481 58.11019662 -39.68052771 54.33254447 -45.75 47.8125 C-52.05914751 39.79397755 -54.14246784 31.88797226 -53.9609375 21.734375 C-52.65162376 12.7979909 -48.11764409 4.94125073 -41.0234375 -0.640625 C-27.82173443 -9.73569143 -12.98433462 -9.26797029 0 0 Z " fill="#FEFEFE" transform="translate(1529.9609375,280.265625)"/>
<path d="M0 0 C2.56364483 -0.10845031 5.12266279 -0.18749744 7.6875 -0.25 C8.40873047 -0.28351563 9.12996094 -0.31703125 9.87304688 -0.3515625 C13.76432868 -0.42263614 15.56431397 -0.27823227 18.93798828 1.8762207 C22.88939947 5.94599644 23.2268616 9.53365465 23.17578125 15.12695312 C23.15902344 15.84818359 23.14226562 16.56941406 23.125 17.3125 C23.11597656 18.05306641 23.10695313 18.79363281 23.09765625 19.55664062 C23.07424213 21.37123467 23.03837615 23.18566071 23 25 C27.29 25 31.58 25 36 25 C36.44223108 33.69721116 36.44223108 33.69721116 33 38 C30.47723551 40.52276449 29.48380293 40.98855261 25.86328125 41.07421875 C24.91839844 41.04972656 23.97351562 41.02523438 23 41 C23.06681698 48.22690133 23.15654988 55.45325383 23.26245117 62.6796875 C23.29576766 65.13958212 23.32377836 67.59955442 23.34643555 70.05957031 C23.37985781 73.5895305 23.43216766 77.11877434 23.48828125 80.6484375 C23.49467117 81.75367767 23.5010611 82.85891785 23.50764465 83.99765015 C23.53733589 85.52901108 23.53733589 85.52901108 23.56762695 87.09130859 C23.57873001 87.99287689 23.58983307 88.89444519 23.60127258 89.82333374 C23.79864265 90.90078354 23.79864265 90.90078354 24 92 C28.06725434 94.7115029 31.1547611 94.57867488 36 95 C36 100.61 36 106.22 36 112 C32.49978808 112.05431363 29.00043242 112.09382567 25.5 112.125 C24.02660156 112.15013672 24.02660156 112.15013672 22.5234375 112.17578125 C8.97309483 112.26611687 8.97309483 112.26611687 4.16015625 108.59765625 C1.28431877 104.57557749 -0.12637045 101.72821545 -0.12025452 96.80488586 C-0.12162918 95.95093231 -0.12300385 95.09697876 -0.12442017 94.21714783 C-0.12082489 93.28350906 -0.11722961 92.3498703 -0.11352539 91.38793945 C-0.11367142 90.40239075 -0.11381744 89.41684204 -0.1139679 88.40142822 C-0.11327035 85.1386903 -0.10548527 81.87600922 -0.09765625 78.61328125 C-0.09579151 76.3531243 -0.09436787 74.09296695 -0.09336853 71.83280945 C-0.08954776 65.8799427 -0.07972119 59.92710029 -0.06866455 53.97424316 C-0.058441 47.90145192 -0.05386888 41.82865674 -0.04882812 35.75585938 C-0.03809856 23.83722888 -0.02102738 11.91861646 0 0 Z " fill="#0C7FC2" transform="translate(1153,1273)"/>
<path d="M0 0 C6.37864772 5.03143333 10.48479581 11.69042902 12 19.6796875 C12.9488944 28.17594201 11.20649768 35.79517808 6.4921875 42.9765625 C1.77766605 48.80941229 -4.51868826 53.29937168 -12 54.6796875 C-22.70456112 55.55382167 -30.0191266 54.18025993 -38.3125 47.3046875 C-44.07421651 41.93243095 -47.53620907 36.27984637 -48.3359375 28.34765625 C-48.45802531 17.46963206 -46.43219606 10.49750588 -39 2.47265625 C-27.83494499 -7.53664111 -12.42675542 -8.20360026 0 0 Z " fill="#FEFEFE" transform="translate(1522,518.3203125)"/>
</svg>
